<?xml version="1.0" encoding="UTF-8" standalone="no"?>
<!-- Created with Inkscape (http://www.inkscape.org/) -->

<svg
   xmlns:dc="http://purl.org/dc/elements/1.1/"
   xmlns:cc="http://creativecommons.org/ns#"
   xmlns:rdf="http://www.w3.org/1999/02/22-rdf-syntax-ns#"
   xmlns:svg="http://www.w3.org/2000/svg"
   xmlns="http://www.w3.org/2000/svg"
   xmlns:xlink="http://www.w3.org/1999/xlink"
   xmlns:sodipodi="http://sodipodi.sourceforge.net/DTD/sodipodi-0.dtd"
   xmlns:inkscape="http://www.inkscape.org/namespaces/inkscape"
   width="1103.2886mm"
   height="250.16429mm"
   viewBox="0 0 1103.2886 250.16429"
   version="1.1"
   id="svg1897"
   inkscape:version="0.92.4 (5da689c313, 2019-01-14)"
   sodipodi:docname="icons.svg">
  <defs
     id="defs1891">
    <linearGradient
       gradientUnits="userSpaceOnUse"
       gradientTransform="matrix(0.12224779,0,0,0.12632142,522.95381,603.39216)"
       id="a"
       x1="441.98419"
       y1="75.63131"
       x2="62.126282"
       y2="454.26938">
      <stop
         offset=".05"
         stop-color="#fff44f"
         id="stop2" />
      <stop
         offset=".37"
         stop-color="#ff980e"
         id="stop4" />
      <stop
         offset=".53"
         stop-color="#ff3647"
         id="stop6" />
      <stop
         offset=".7"
         stop-color="#e31587"
         id="stop8" />
    </linearGradient>
    <radialGradient
       gradientUnits="userSpaceOnUse"
       fy="61.159756"
       fx="392.80673"
       id="b"
       cx="392.80673"
       cy="61.159756"
       r="554.14581"
       gradientTransform="matrix(0.13778047,0,0,0.11208057,522.95381,603.39216)">
      <stop
         offset=".13"
         stop-color="#ffbd4f"
         id="stop11" />
      <stop
         offset=".28"
         stop-color="#ff980e"
         id="stop13" />
      <stop
         offset=".47"
         stop-color="#ff3750"
         id="stop15" />
      <stop
         offset=".78"
         stop-color="#eb0878"
         id="stop17" />
      <stop
         offset=".86"
         stop-color="#e50080"
         id="stop19" />
    </radialGradient>
    <radialGradient
       gradientUnits="userSpaceOnUse"
       fy="290.17783"
       fx="226.56297"
       id="c"
       cx="226.56297"
       cy="290.17783"
       r="554.14581"
       gradientTransform="matrix(0.13778047,0,0,0.11208057,522.95381,603.39216)">
      <stop
         offset=".3"
         stop-color="#960e18"
         id="stop22" />
      <stop
         offset=".35"
         stop-color="#b11927"
         stop-opacity=".74"
         id="stop24" />
      <stop
         offset=".43"
         stop-color="#db293d"
         stop-opacity=".34"
         id="stop26" />
      <stop
         offset=".5"
         stop-color="#f5334b"
         stop-opacity=".09"
         id="stop28" />
      <stop
         offset=".53"
         stop-color="#ff3750"
         stop-opacity="0"
         id="stop30" />
    </radialGradient>
    <radialGradient
       gradientUnits="userSpaceOnUse"
       fy="-17.973478"
       fx="395.44366"
       gradientTransform="matrix(0.09537225,0,0,0.16191831,522.95381,603.39216)"
       id="d"
       cx="395.44366"
       cy="-17.973478"
       r="210.2099">
      <stop
         offset=".13"
         stop-color="#fff44f"
         id="stop33" />
      <stop
         offset=".53"
         stop-color="#ff980e"
         id="stop35" />
    </radialGradient>
    <radialGradient
       gradientUnits="userSpaceOnUse"
       fy="373.24011"
       fx="206.27052"
       gradientTransform="matrix(0.11870018,0,0,0.1300968,522.95381,603.39216)"
       id="e"
       cx="206.27052"
       cy="373.24011"
       r="223.4966">
      <stop
         offset=".35"
         stop-color="#3a8ee6"
         id="stop38" />
      <stop
         offset=".67"
         stop-color="#9059ff"
         id="stop40" />
      <stop
         offset="1"
         stop-color="#c139e6"
         id="stop42" />
    </radialGradient>
    <radialGradient
       gradientUnits="userSpaceOnUse"
       fy="200.9019"
       fx="271.62091"
       id="f"
       cx="271.62091"
       cy="200.9019"
       r="131.86298"
       gradientTransform="matrix(0.11870018,0,0,0.1300968,522.95381,603.39216)">
      <stop
         offset=".21"
         stop-color="#9059ff"
         stop-opacity="0"
         id="stop45" />
      <stop
         offset=".97"
         stop-color="#6e008b"
         stop-opacity=".6"
         id="stop47" />
    </radialGradient>
    <radialGradient
       gradientUnits="userSpaceOnUse"
       fy="36.806652"
       fx="240.61284"
       gradientTransform="matrix(0.12404767,0,0,0.12448855,522.95381,603.39216)"
       id="g"
       cx="240.61284"
       cy="36.806652"
       r="170.02094">
      <stop
         offset=".1"
         stop-color="#ffe226"
         id="stop50" />
      <stop
         offset=".79"
         stop-color="#ff7139"
         id="stop52" />
    </radialGradient>
    <radialGradient
       gradientUnits="userSpaceOnUse"
       fy="-81.709213"
       fx="362.07501"
       gradientTransform="matrix(0.13563223,0,0,0.11385579,522.95381,603.39216)"
       id="h"
       cx="362.07501"
       cy="-81.709213"
       r="742.3869">
      <stop
         offset=".11"
         stop-color="#fff44f"
         id="stop55" />
      <stop
         offset=".46"
         stop-color="#ff980e"
         id="stop57" />
      <stop
         offset=".72"
         stop-color="#ff3647"
         id="stop59" />
      <stop
         offset=".9"
         stop-color="#e31587"
         id="stop61" />
    </radialGradient>
    <radialGradient
       gradientUnits="userSpaceOnUse"
       fy="-41.588268"
       fx="475.58807"
       id="i"
       cx="475.58807"
       cy="-41.588268"
       r="779.90863"
       gradientTransform="matrix(0.08551919,0,0,0.18057367,522.95381,603.39216)">
      <stop
         offset="0"
         stop-color="#fff44f"
         id="stop64" />
      <stop
         offset=".3"
         stop-color="#ff980e"
         id="stop66" />
      <stop
         offset=".57"
         stop-color="#ff3647"
         id="stop68" />
      <stop
         offset=".74"
         stop-color="#e31587"
         id="stop70" />
    </radialGradient>
    <radialGradient
       gradientUnits="userSpaceOnUse"
       fy="99.006172"
       fx="239.79736"
       gradientTransform="matrix(0.12537402,0,0,0.12317156,522.95381,603.39216)"
       id="j"
       cx="239.79736"
       cy="99.006172"
       r="461.1138">
      <stop
         offset=".14"
         stop-color="#fff44f"
         id="stop73" />
      <stop
         offset=".48"
         stop-color="#ff980e"
         id="stop75" />
      <stop
         offset=".66"
         stop-color="#ff3647"
         id="stop77" />
      <stop
         offset=".9"
         stop-color="#e31587"
         id="stop79" />
    </radialGradient>
    <radialGradient
       gradientUnits="userSpaceOnUse"
       fy="132.0125"
       fx="343.03802"
       gradientTransform="matrix(0.13138321,0,0,0.11753796,522.95381,603.39216)"
       id="k"
       cx="343.03802"
       cy="132.0125"
       r="528.89331">
      <stop
         offset=".09"
         stop-color="#fff44f"
         id="stop82" />
      <stop
         offset=".63"
         stop-color="#ff980e"
         id="stop84" />
    </radialGradient>
    <linearGradient
       gradientUnits="userSpaceOnUse"
       gradientTransform="matrix(0.12224728,0,0,0.12632194,523.58814,603.89558)"
       id="l"
       x1="406.61136"
       y1="68.311989"
       x2="104.09252"
       y2="409.86551">
      <stop
         offset=".17"
         stop-color="#fff44f"
         stop-opacity=".8"
         id="stop87" />
      <stop
         offset=".6"
         stop-color="#fff44f"
         stop-opacity="0"
         id="stop89" />
    </linearGradient>
    <filter
       height="1.096"
       y="-0.048"
       width="1.096"
       x="-0.048"
       id="filter2248"
       style="color-interpolation-filters:sRGB"
       inkscape:collect="always">
      <feGaussianBlur
         id="feGaussianBlur2250"
         stdDeviation="3.5643107"
         inkscape:collect="always" />
    </filter>
    <linearGradient
       gradientTransform="matrix(0.35154274,0,0,0.35154274,206.79018,159.77261)"
       gradientUnits="userSpaceOnUse"
       y2="59.392235"
       x2="412.97501"
       y1="237.60777"
       x1="412.97501"
       id="linearGradient2129"
       xlink:href="#linearGradient2127"
       inkscape:collect="always" />
    <linearGradient
       id="linearGradient2127"
       inkscape:collect="always">
      <stop
         id="stop2123"
         offset="0"
         style="stop-color:#bdbdbd;stop-opacity:1" />
      <stop
         id="stop2125"
         offset="1"
         style="stop-color:#ffffff;stop-opacity:1" />
    </linearGradient>
    <radialGradient
       gradientTransform="matrix(0.38143305,0,0,0.38143298,194.54473,155.58044)"
       gradientUnits="userSpaceOnUse"
       r="82.125351"
       fy="136.81819"
       fx="413.06128"
       cy="136.81819"
       cx="413.06128"
       id="radialGradient2137"
       xlink:href="#linearGradient2135"
       inkscape:collect="always" />
    <linearGradient
       id="linearGradient2135"
       inkscape:collect="always">
      <stop
         id="stop2131"
         offset="0"
         style="stop-color:#06c2e7;stop-opacity:1" />
      <stop
         style="stop-color:#0db8ec;stop-opacity:1"
         offset="0.25000015"
         id="stop2143" />
      <stop
         style="stop-color:#12aef1;stop-opacity:1"
         offset="0.5000003"
         id="stop2139" />
      <stop
         id="stop2141"
         offset="0.75000012"
         style="stop-color:#1f86f9;stop-opacity:1" />
      <stop
         id="stop2133"
         offset="1"
         style="stop-color:#107ddd;stop-opacity:1" />
    </linearGradient>
    <filter
       height="1.0446756"
       y="-0.0223378"
       width="1.0418189"
       x="-0.020909378"
       id="filter2222"
       style="color-interpolation-filters:sRGB"
       inkscape:collect="always">
      <feGaussianBlur
         id="feGaussianBlur2224"
         stdDeviation="0.95767362"
         inkscape:collect="always" />
    </filter>
  </defs>
  <sodipodi:namedview
     id="base"
     pagecolor="#ffffff"
     bordercolor="#666666"
     borderopacity="1.0"
     inkscape:pageopacity="0.0"
     inkscape:pageshadow="2"
     inkscape:zoom="0.12374369"
     inkscape:cx="1845.2404"
     inkscape:cy="1059.5218"
     inkscape:document-units="mm"
     inkscape:current-layer="layer1"
     showgrid="false"
     inkscape:window-width="1920"
     inkscape:window-height="1017"
     inkscape:window-x="-8"
     inkscape:window-y="-8"
     inkscape:window-maximized="1" />
  <metadata
     id="metadata1894">
    <rdf:RDF>
      <cc:Work
         rdf:about="">
        <dc:format>image/svg+xml</dc:format>
        <dc:type
           rdf:resource="http://purl.org/dc/dcmitype/StillImage" />
        <dc:title></dc:title>
      </cc:Work>
    </rdf:RDF>
  </metadata>
  <g
     inkscape:label="Layer 1"
     inkscape:groupmode="layer"
     id="layer1"
     transform="translate(579.6145,32.94524)">
    <rect
       style="opacity:1;fill:#ffffff;fill-opacity:1;stroke:none;stroke-width:0.79374999;stroke-linecap:round;stroke-linejoin:round;stroke-miterlimit:4;stroke-dasharray:none;stroke-opacity:1;paint-order:fill markers stroke"
       id="rect1044"
       width="1103.2886"
       height="250.16429"
       x="-579.6145"
       y="-32.94524"
       inkscape:export-filename="C:\Users\user\Desktop\Work\Autodaily\SendinBlue\icons-apps.png"
       inkscape:export-xdpi="300"
       inkscape:export-ydpi="300" />
    <text
       xml:space="preserve"
       style="font-style:normal;font-variant:normal;font-weight:normal;font-stretch:normal;font-size:21.24455452px;line-height:1.25;font-family:Poppins;-inkscape-font-specification:Poppins;text-align:center;text-anchor:middle;opacity:1;fill:#060606;fill-opacity:1;stroke:none;stroke-width:5.31113863;stroke-linecap:round;stroke-linejoin:round;stroke-miterlimit:4;stroke-dasharray:none;stroke-opacity:1;paint-order:fill markers stroke"
       x="-420.98682"
       y="130.48647"
       id="text1002"
       inkscape:export-filename="C:\Users\user\Desktop\Work\Autodaily\SendinBlue\icons-apps.png"
       inkscape:export-xdpi="200"
       inkscape:export-ydpi="200"><tspan
         sodipodi:role="line"
         id="tspan1000"
         x="-420.98682"
         y="130.48647"
         style="stroke-width:5.31113863">App for Customers</tspan></text>
    <path
       inkscape:connector-curvature="0"
       id="path1004"
       d="m -456.17501,105.27395 c -1.0324,-0.3375 -1.84346,-1.11598 -2.26669,-2.17563 -0.10922,-0.27345 -0.15203,-1.28948 -0.19261,-4.570901 l -0.0522,-4.21929 -1.49949,-0.0675 c -0.82472,-0.0371 -1.65854,-0.0973 -1.85295,-0.1338 -0.92811,-0.17411 -2.04506,-1.0611 -2.50579,-1.98989 -0.12788,-0.25779 -0.27578,-0.75177 -0.32866,-1.09773 -0.0582,-0.38064 -0.0854,-5.07158 -0.0689,-11.88044 l 0.0273,-11.25144 h 15.62141 15.62142 l 0.0273,11.25144 c 0.0165,6.80886 -0.0107,11.4998 -0.0689,11.88044 -0.0529,0.34596 -0.20078,0.84324 -0.32866,1.10506 -0.44199,0.90491 -1.5281,1.77052 -2.49285,1.98674 -0.19338,0.0433 -1.02971,0.10543 -1.85849,0.13796 l -1.50689,0.0591 -0.0502,4.26952 c -0.0496,4.214981 -0.0532,4.276201 -0.28655,4.792091 -0.28468,0.62949 -1.13064,1.46092 -1.79791,1.76701 -0.37694,0.17291 -0.66761,0.21924 -1.38289,0.22042 -0.82076,0.002 -0.96804,-0.0292 -1.57143,-0.32598 -0.7748,-0.38109 -1.30579,-0.9252 -1.67841,-1.7199 l -0.26473,-0.56458 -0.0311,-4.244401 -0.0311,-4.2444 h -2.29867 -2.29866 l -0.0311,4.2444 -0.031,4.244401 -0.26473,0.56458 c -0.37235,0.79412 -0.90367,1.33878 -1.67775,1.7199 -0.54656,0.2691 -0.79978,0.33162 -1.42073,0.35079 -0.41799,0.0129 -0.93518,-0.0354 -1.15746,-0.10803 z m -14.68471,-16.680151 c -0.92718,-0.30264 -1.6746,-0.99041 -2.12864,-1.95874 l -0.26472,-0.56458 v -8.03674 c 0,-8.81128 -0.0274,-8.39771 0.61943,-9.36059 0.67704,-1.00789 2.03882,-1.63497 3.23826,-1.49118 1.20472,0.14443 2.28479,0.93043 2.80575,2.04184 l 0.26825,0.57227 v 8.18743 8.18743 l -0.27941,0.56897 c -0.34217,0.69677 -0.95113,1.32181 -1.62474,1.66764 -0.61567,0.31609 -1.94784,0.41028 -2.63418,0.18625 z m 40.71128,-0.10462 c -0.73571,-0.30982 -1.47934,-1.02131 -1.84549,-1.76572 l -0.27177,-0.55252 v -8.18743 -8.18743 l 0.26472,-0.56459 c 0.37056,-0.79028 0.90367,-1.33878 1.66599,-1.71407 0.57454,-0.28284 0.752,-0.32142 1.47097,-0.3198 1.06594,0.002 1.79416,0.27754 2.46567,0.93162 0.60401,0.58832 0.86952,1.09356 1.01334,1.92827 0.076,0.44102 0.10136,3.05436 0.0809,8.32783 l -0.0299,7.68514 -0.26726,0.57012 c -0.35643,0.76033 -0.98713,1.4247 -1.66935,1.75849 -0.8218,0.40207 -2.04595,0.44039 -2.87781,0.0901 z m -34.85024,-21.924538 c -0.10899,-0.10899 -0.0759,-0.92143 0.0791,-1.942222 0.63337,-4.17041 3.24155,-7.900548 7.09977,-10.15387 0.37971,-0.22176 0.69039,-0.439719 0.69039,-0.484348 0,-0.0446 -0.52049,-1.04307 -1.15665,-2.218762 -0.63616,-1.175679 -1.1812,-2.23542 -1.2112,-2.354958 -0.0745,-0.296921 0.26994,-0.604211 0.58786,-0.524412 0.18589,0.0466 0.50636,0.54974 1.47942,2.32247 0.90322,1.645491 1.29121,2.26291 1.42204,2.26291 0.099,0 0.46959,-0.10904 0.82364,-0.2423 2.28119,-0.85864 5.05737,-1.217899 7.49806,-0.97031 1.53484,0.1557 2.42645,0.346512 3.82839,0.819312 0.64142,0.21631 1.23199,0.393298 1.31237,0.393298 0.0868,0 0.65049,-0.91879 1.38829,-2.26291 0.97306,-1.77273 1.29353,-2.275819 1.47941,-2.32247 0.31792,-0.0798 0.66239,0.227491 0.58787,0.524412 -0.03,0.119538 -0.57637,1.181729 -1.21415,2.360409 -0.63778,1.178679 -1.13937,2.19575 -1.11466,2.26016 0.0247,0.0644 0.34309,0.28384 0.70748,0.48763 2.2375,1.25127 4.54275,3.696891 5.73613,6.08538 0.77192,1.544971 1.16874,2.91534 1.36083,4.699481 0.0861,0.799709 0.0837,1.067319 -0.0107,1.181039 -0.10616,0.127911 -2.14937,0.147029 -15.7144,0.147029 -8.5758,0 -15.62251,-0.0301 -15.65934,-0.067 z m 9.02562,-5.80385 c 0.79829,-0.333552 1.00627,-1.508871 0.36793,-2.07922 -0.40191,-0.359111 -0.88369,-0.44854 -1.35511,-0.251571 -0.98275,0.41062 -1.01755,1.830189 -0.0565,2.303661 0.41947,0.206639 0.60262,0.211399 1.04365,0.0272 z m 14.38644,-0.0231 c 0.97589,-0.4631 0.95096,-1.89352 -0.0402,-2.30767 -0.47143,-0.196979 -0.95321,-0.10754 -1.35511,0.251558 -0.62897,0.561981 -0.43326,1.736252 0.34582,2.074932 0.42814,0.186129 0.62506,0.182589 1.04952,-0.01881 z"
       style="fill:#3bd580;fill-opacity:1;stroke-width:0.10045926" />
    <path
       inkscape:connector-curvature="0"
       id="path1006"
       d="m -401.8753,105.27395 c -2.08974,-0.54031 -3.75921,-1.92 -6.11767,-5.05578 -2.71425,-3.608831 -4.33595,-6.681871 -5.66292,-10.730921 -0.82096,-2.50504 -1.30059,-4.79469 -1.58964,-7.58856 -0.19462,-1.88116 -0.20158,-2.71505 -0.036,-4.3091 0.38169,-3.67386 1.21596,-6.21131 2.83986,-8.63746 2.57918,-3.85337 6.81842,-6.20282 11.19208,-6.20282 1.70022,0 2.74794,0.25146 5.58268,1.339911 2.86566,1.10031 3.59875,1.237409 4.81485,0.900409 0.31954,-0.0885 1.41801,-0.482888 2.44105,-0.876289 3.13098,-1.204021 4.54409,-1.542191 6.42634,-1.53787 3.7099,0.008 6.96638,1.23366 9.37596,3.527409 0.72559,0.690711 1.74915,1.87303 1.74915,2.02046 0,0.035 -0.32605,0.30777 -0.72454,0.60607 -2.71893,2.03527 -4.42124,4.61503 -5.08653,7.70838 -0.23762,1.10483 -0.26248,3.50333 -0.0482,4.65263 0.33978,1.82272 1.05271,3.53902 2.06273,4.96578 1.06986,1.5113 2.83156,3.03582 4.5201,3.91156 0.42071,0.21819 0.76538,0.44389 0.76594,0.50155 0.002,0.18016 -0.71396,2.08658 -1.15745,3.08313 -1.74695,3.92544 -5.04096,8.561271 -7.32382,10.307221 -1.49396,1.14258 -3.17576,1.63736 -4.94272,1.45414 -1.02617,-0.10641 -1.89054,-0.36429 -3.62735,-1.08222 -1.65432,-0.68383 -2.64064,-0.95538 -3.90226,-1.07436 -1.75978,-0.16595 -3.50858,0.12932 -5.44373,0.91911 -1.96046,0.80014 -2.70816,1.05488 -3.60307,1.22758 -1.1269,0.21747 -1.56826,0.21219 -2.50483,-0.03 z m 9.43527,-43.570131 c -0.083,-0.330539 0.0281,-2.150489 0.17119,-2.804898 0.9559,-4.372322 4.24762,-8.018622 8.52179,-9.439762 1.04957,-0.34898 2.49505,-0.629769 2.61654,-0.50827 0.1323,0.132292 0.10336,1.99063 -0.0447,2.874391 -0.27429,1.636681 -1.06179,3.549441 -2.11256,5.131239 -0.70908,1.067422 -2.17956,2.529861 -3.26833,3.25047 -1.73891,1.1509 -3.41265,1.71428 -5.09293,1.71428 -0.72584,0 -0.73716,-0.003 -0.79096,-0.21745 z"
       style="fill:#3c3538;fill-opacity:1;stroke-width:0.08280412" />
    <text
       id="text1010"
       y="130.48647"
       x="-184.72058"
       style="font-style:normal;font-variant:normal;font-weight:normal;font-stretch:normal;font-size:21.24455452px;line-height:1.25;font-family:Poppins;-inkscape-font-specification:Poppins;text-align:center;text-anchor:middle;opacity:1;fill:#060606;fill-opacity:1;stroke:none;stroke-width:5.31113863;stroke-linecap:round;stroke-linejoin:round;stroke-miterlimit:4;stroke-dasharray:none;stroke-opacity:1;paint-order:fill markers stroke"
       xml:space="preserve"
       inkscape:export-filename="C:\Users\user\Desktop\Work\Autodaily\SendinBlue\icons-apps.png"
       inkscape:export-xdpi="200"
       inkscape:export-ydpi="200"><tspan
         style="stroke-width:5.31113863"
         y="130.48647"
         x="-184.72058"
         id="tspan1008"
         sodipodi:role="line">App for Delivery Staff</tspan></text>
    <path
       style="fill:#3bd580;fill-opacity:1;stroke-width:0.10045926"
       d="m -219.65613,105.27395 c -1.0324,-0.3375 -1.84346,-1.11598 -2.26668,-2.17563 -0.10922,-0.27345 -0.15203,-1.28948 -0.19262,-4.570901 l -0.0522,-4.21929 -1.49948,-0.0675 c -0.82473,-0.0371 -1.65854,-0.0973 -1.85295,-0.1338 -0.92811,-0.17411 -2.04507,-1.0611 -2.50579,-1.98989 -0.1279,-0.25779 -0.27578,-0.75177 -0.32867,-1.09773 -0.0582,-0.38064 -0.0854,-5.07158 -0.0689,-11.88044 l 0.0273,-11.25144 h 15.6214 15.62142 l 0.0273,11.25144 c 0.0164,6.80886 -0.0108,11.4998 -0.0689,11.88044 -0.0529,0.34596 -0.20079,0.84324 -0.32867,1.10506 -0.44198,0.90491 -1.5281,1.77052 -2.49285,1.98674 -0.19338,0.0433 -1.0297,0.10543 -1.85848,0.13796 l -1.50689,0.0591 -0.0502,4.26952 c -0.0496,4.214981 -0.0532,4.276201 -0.28655,4.792091 -0.28469,0.62949 -1.13064,1.46092 -1.79792,1.76701 -0.37693,0.17291 -0.6676,0.21924 -1.38287,0.22042 -0.82077,0.002 -0.96806,-0.0292 -1.57144,-0.32598 -0.77481,-0.38109 -1.3058,-0.9252 -1.67841,-1.7199 l -0.26472,-0.56458 -0.0311,-4.244401 -0.0311,-4.2444 h -2.29868 -2.29867 l -0.0311,4.2444 -0.031,4.244401 -0.26471,0.56458 c -0.37235,0.79412 -0.90369,1.33878 -1.67775,1.7199 -0.54658,0.2691 -0.79978,0.33162 -1.42073,0.35079 -0.41799,0.0129 -0.9352,-0.0354 -1.15748,-0.10803 z m -14.68472,-16.680151 c -0.92718,-0.30264 -1.6746,-0.99041 -2.12862,-1.95874 l -0.26472,-0.56458 v -8.03674 c 0,-8.81128 -0.0274,-8.39771 0.61942,-9.36059 0.67704,-1.00789 2.03882,-1.63497 3.23826,-1.49118 1.20473,0.14443 2.28478,0.93043 2.80575,2.04184 l 0.26826,0.57227 v 8.18743 8.18743 l -0.27943,0.56897 c -0.34216,0.69677 -0.95112,1.32181 -1.62473,1.66764 -0.61568,0.31609 -1.94783,0.41028 -2.63419,0.18625 z m 40.71128,-0.10462 c -0.7357,-0.30982 -1.47934,-1.02131 -1.84547,-1.76572 l -0.27178,-0.55252 v -8.18743 -8.18743 l 0.26472,-0.56459 c 0.37057,-0.79028 0.90368,-1.33878 1.666,-1.71407 0.57454,-0.28284 0.752,-0.32142 1.47095,-0.3198 1.06595,0.002 1.79417,0.27754 2.46568,0.93162 0.60402,0.58832 0.86953,1.09356 1.01335,1.92827 0.076,0.44102 0.10134,3.05436 0.0809,8.32783 l -0.0299,7.68514 -0.26726,0.57012 c -0.35642,0.76033 -0.98713,1.4247 -1.66936,1.75849 -0.82179,0.40207 -2.04594,0.44039 -2.87779,0.0901 z M -228.4798,66.564641 c -0.10898,-0.10899 -0.0759,-0.92143 0.0791,-1.942222 0.63336,-4.17041 3.24155,-7.900548 7.09975,-10.15387 0.37973,-0.22176 0.69041,-0.439719 0.69041,-0.484348 0,-0.0446 -0.52049,-1.04307 -1.15666,-2.218762 -0.63616,-1.175679 -1.1812,-2.23542 -1.21121,-2.354958 -0.0745,-0.296921 0.26996,-0.604211 0.58788,-0.524412 0.18587,0.0466 0.50636,0.54974 1.47942,2.32247 0.90321,1.645491 1.29119,2.26291 1.42203,2.26291 0.099,0 0.46958,-0.10904 0.82365,-0.242301 2.28118,-0.858639 5.05735,-1.217898 7.49805,-0.970309 1.53485,0.1557 2.42644,0.346512 3.82839,0.819312 0.64143,0.21631 1.23198,0.393298 1.31236,0.393298 0.0868,0 0.6505,-0.91879 1.38829,-2.26291 0.97306,-1.77273 1.29355,-2.275819 1.47942,-2.32247 0.31793,-0.0798 0.66239,0.227491 0.58788,0.524412 -0.03,0.119538 -0.57637,1.181729 -1.21415,2.360409 -0.6378,1.178679 -1.13937,2.19575 -1.11466,2.26016 0.0246,0.0644 0.34309,0.28384 0.70747,0.48763 2.2375,1.25127 4.54276,3.696891 5.73614,6.08538 0.77192,1.544971 1.16874,2.91534 1.36083,4.699481 0.0861,0.799709 0.0837,1.067319 -0.0109,1.181039 -0.10615,0.127911 -2.14937,0.147029 -15.71439,0.147029 -8.57581,0 -15.62251,-0.0301 -15.65934,-0.067 z m 9.02563,-5.80385 c 0.79827,-0.333552 1.00626,-1.508871 0.36793,-2.07922 -0.40193,-0.359111 -0.88371,-0.44854 -1.35512,-0.251571 -0.98274,0.41062 -1.01756,1.830189 -0.0565,2.303661 0.41947,0.206639 0.60262,0.211399 1.04365,0.0272 z m 14.38643,-0.0231 c 0.97589,-0.4631 0.95096,-1.89352 -0.0402,-2.30767 -0.47144,-0.196979 -0.95322,-0.10754 -1.35512,0.251558 -0.62897,0.561981 -0.43326,1.736252 0.34581,2.074932 0.42815,0.186129 0.62508,0.182589 1.04952,-0.01881 z"
       id="path1012"
       inkscape:connector-curvature="0" />
    <path
       style="fill:#3c3538;fill-opacity:1;stroke-width:0.08280412"
       d="m -165.35641,105.27395 c -2.08975,-0.54031 -3.75922,-1.92 -6.11766,-5.05578 -2.71426,-3.608831 -4.33597,-6.681871 -5.66293,-10.730921 -0.82098,-2.50504 -1.30059,-4.79469 -1.58965,-7.58856 -0.19463,-1.88116 -0.20158,-2.71505 -0.036,-4.3091 0.38169,-3.67386 1.21597,-6.21131 2.83988,-8.63746 2.57916,-3.85337 6.81842,-6.20282 11.19206,-6.20282 1.70024,0 2.74796,0.25146 5.58268,1.339911 2.86568,1.10031 3.59876,1.237409 4.81486,0.900409 0.31954,-0.0885 1.41801,-0.482888 2.44105,-0.876289 3.13097,-1.204021 4.54409,-1.542191 6.42633,-1.53787 3.70991,0.008 6.9664,1.23366 9.37596,3.527409 0.7256,0.690711 1.74916,1.87303 1.74916,2.02046 0,0.035 -0.32604,0.30777 -0.72453,0.60607 -2.71894,2.03527 -4.42124,4.61503 -5.08654,7.70838 -0.23762,1.10483 -0.26249,3.50333 -0.0482,4.65263 0.33977,1.82272 1.05272,3.53902 2.06274,4.96578 1.06984,1.5113 2.83155,3.03582 4.52009,3.91156 0.42071,0.21819 0.76539,0.44389 0.76594,0.50155 0.003,0.18016 -0.71395,2.08658 -1.15744,3.08313 -1.74697,3.92544 -5.04098,8.561271 -7.32383,10.307221 -1.49397,1.14258 -3.17577,1.63736 -4.94271,1.45414 -1.02618,-0.10641 -1.89055,-0.36429 -3.62736,-1.08222 -1.65433,-0.68383 -2.64064,-0.95538 -3.90226,-1.07436 -1.75977,-0.16595 -3.50858,0.12932 -5.44372,0.91911 -1.96046,0.80014 -2.70817,1.05488 -3.60307,1.22758 -1.12691,0.21747 -1.56826,0.21219 -2.50484,-0.03 z m 9.43526,-43.570131 c -0.083,-0.330539 0.0281,-2.150489 0.17118,-2.804898 0.95592,-4.372322 4.24762,-8.018622 8.52181,-9.439762 1.04958,-0.34898 2.49505,-0.629769 2.61654,-0.50827 0.1323,0.132292 0.10335,1.99063 -0.0447,2.874391 -0.27429,1.636681 -1.06177,3.549441 -2.11257,5.131239 -0.70908,1.067422 -2.17955,2.529861 -3.26832,3.25047 -1.73892,1.1509 -3.41264,1.71428 -5.09293,1.71428 -0.72583,0 -0.73716,-0.003 -0.79095,-0.21745 z"
       id="path1014"
       inkscape:connector-curvature="0" />
    <text
       xml:space="preserve"
       style="font-style:normal;font-variant:normal;font-weight:normal;font-stretch:normal;font-size:21.24455452px;line-height:1.25;font-family:Poppins;-inkscape-font-specification:Poppins;text-align:center;text-anchor:middle;opacity:1;fill:#060606;fill-opacity:1;stroke:none;stroke-width:5.31113863;stroke-linecap:round;stroke-linejoin:round;stroke-miterlimit:4;stroke-dasharray:none;stroke-opacity:1;paint-order:fill markers stroke"
       x="83.61808"
       y="130.48647"
       id="text1026"
       inkscape:export-filename="C:\Users\user\Desktop\Work\Autodaily\SendinBlue\icons-apps.png"
       inkscape:export-xdpi="200"
       inkscape:export-ydpi="200"><tspan
         sodipodi:role="line"
         id="tspan1024"
         x="83.61808"
         y="130.48647"
         style="stroke-width:5.31113863">App for Stock Managers</tspan></text>
    <path
       inkscape:connector-curvature="0"
       id="path1028"
       d="m 48.429895,105.27395 c -1.0324,-0.3375 -1.84346,-1.11598 -2.26668,-2.17563 -0.10922,-0.27345 -0.15203,-1.28948 -0.19262,-4.570901 l -0.0522,-4.21929 -1.49948,-0.0675 c -0.82473,-0.0371 -1.65854,-0.0973 -1.85295,-0.1338 -0.92811,-0.17411 -2.04507,-1.0611 -2.50579,-1.98989 -0.12787,-0.25779 -0.27578,-0.75177 -0.32867,-1.09773 -0.0582,-0.38064 -0.0854,-5.07158 -0.0689,-11.88044 l 0.0273,-11.25144 h 15.6214 15.62142 l 0.0273,11.25144 c 0.0164,6.80886 -0.0106,11.4998 -0.0689,11.88044 -0.0529,0.34596 -0.20079,0.84324 -0.32867,1.10506 -0.44198,0.90491 -1.5281,1.77052 -2.49285,1.98674 -0.19338,0.0433 -1.0297,0.10543 -1.85848,0.13796 l -1.50689,0.0591 -0.0502,4.26952 c -0.0496,4.214981 -0.0532,4.276201 -0.28655,4.792091 -0.28466,0.62949 -1.13064,1.46092 -1.79789,1.76701 -0.37696,0.17291 -0.66763,0.21924 -1.3829,0.22042 -0.82077,0.002 -0.96803,-0.0292 -1.57144,-0.32598 -0.77481,-0.38109 -1.30577,-0.9252 -1.67841,-1.7199 l -0.26472,-0.56458 -0.0311,-4.244401 -0.0311,-4.2444 h -2.29868 -2.29864 l -0.0311,4.2444 -0.031,4.244401 -0.26471,0.56458 c -0.37235,0.79412 -0.90369,1.33878 -1.67775,1.7199 -0.54658,0.2691 -0.79978,0.33162 -1.42074,0.35079 -0.41798,0.0129 -0.93516,-0.0354 -1.15747,-0.10803 z M 33.745175,88.593799 c -0.92718,-0.30264 -1.6746,-0.99041 -2.12862,-1.95874 l -0.26472,-0.56458 v -8.03674 c 0,-8.81128 -0.0274,-8.39771 0.61942,-9.36059 0.67704,-1.00789 2.03882,-1.63497 3.23826,-1.49118 1.20473,0.14443 2.28478,0.93043 2.80575,2.04184 l 0.26826,0.57227 v 8.18743 8.18743 l -0.2794,0.56897 c -0.34219,0.69677 -0.95115,1.32181 -1.62476,1.66764 -0.61565,0.31609 -1.94783,0.41028 -2.63419,0.18625 z m 40.71131,-0.10462 c -0.73573,-0.30982 -1.47937,-1.02131 -1.8455,-1.76572 l -0.27178,-0.55252 v -8.18743 -8.18743 l 0.26472,-0.56459 c 0.37057,-0.79028 0.90368,-1.33878 1.666,-1.71407 0.57454,-0.28284 0.752,-0.32142 1.47098,-0.3198 1.06592,0.002 1.79414,0.27754 2.46565,0.93162 0.60402,0.58832 0.86953,1.09356 1.01335,1.92827 0.076,0.44102 0.10137,3.05436 0.0809,8.32783 l -0.0299,7.68514 -0.26726,0.57012 c -0.35642,0.76033 -0.98713,1.4247 -1.66933,1.75849 -0.82182,0.40207 -2.04597,0.44039 -2.87782,0.0901 z M 39.606225,66.564641 c -0.10898,-0.10899 -0.0759,-0.92143 0.0791,-1.942222 0.63336,-4.17041 3.24155,-7.900548 7.09975,-10.15387 0.37973,-0.22176 0.69041,-0.439719 0.69041,-0.484348 0,-0.0446 -0.52049,-1.04307 -1.15666,-2.218762 -0.63616,-1.175679 -1.1812,-2.23542 -1.21121,-2.354958 -0.0745,-0.296921 0.26996,-0.604211 0.58788,-0.524412 0.18587,0.0466 0.50636,0.54974 1.47942,2.32247 0.90321,1.645491 1.29119,2.26291 1.42203,2.26291 0.099,0 0.46958,-0.10904 0.82365,-0.242301 2.28118,-0.858639 5.05738,-1.217898 7.49805,-0.970309 1.53485,0.1557 2.42644,0.346512 3.82839,0.819312 0.64143,0.21631 1.23201,0.393298 1.31239,0.393298 0.0868,0 0.65047,-0.91879 1.38826,-2.26291 0.97306,-1.77273 1.29355,-2.275819 1.47942,-2.32247 0.31793,-0.0798 0.66239,0.227491 0.58788,0.524412 -0.03,0.119538 -0.57637,1.181729 -1.21415,2.360409 -0.63777,1.178679 -1.13937,2.19575 -1.11466,2.26016 0.0246,0.0644 0.34309,0.28384 0.70747,0.48763 2.2375,1.25127 4.54276,3.696891 5.73614,6.08538 0.77192,1.544971 1.16874,2.91534 1.36083,4.699481 0.0861,0.799709 0.0837,1.067319 -0.0109,1.181039 -0.10615,0.127911 -2.14937,0.147029 -15.71439,0.147029 -8.57579,0 -15.62251,-0.0301 -15.65934,-0.067 z m 9.02563,-5.80385 c 0.79827,-0.333552 1.00626,-1.508871 0.36793,-2.07922 -0.4019,-0.359111 -0.88368,-0.44854 -1.35512,-0.251571 -0.98274,0.41062 -1.01753,1.830189 -0.0565,2.303661 0.41947,0.206639 0.60262,0.211399 1.04365,0.0272 z m 14.38643,-0.0231 c 0.97588,-0.4631 0.95096,-1.89352 -0.0402,-2.30767 -0.47144,-0.196979 -0.95322,-0.10754 -1.35512,0.251558 -0.62897,0.561981 -0.43326,1.736252 0.34584,2.074932 0.42812,0.186129 0.62505,0.182589 1.04949,-0.01881 z"
       style="fill:#3bd580;fill-opacity:1;stroke-width:0.10045926" />
    <path
       inkscape:connector-curvature="0"
       id="path1030"
       d="m 102.72961,105.27395 c -2.08975,-0.54031 -3.759215,-1.92 -6.117655,-5.05578 -2.71426,-3.608831 -4.33597,-6.681871 -5.66293,-10.730921 -0.82095,-2.50504 -1.30059,-4.79469 -1.58965,-7.58856 -0.19463,-1.88116 -0.20158,-2.71505 -0.036,-4.3091 0.38172,-3.67386 1.21597,-6.21131 2.83988,-8.63746 2.57919,-3.85337 6.81842,-6.20282 11.192085,-6.20282 1.70021,0 2.74793,0.25146 5.58265,1.339911 2.86568,1.10031 3.59876,1.237409 4.81486,0.900409 0.31954,-0.0885 1.41801,-0.482888 2.44105,-0.876289 3.13097,-1.204021 4.54409,-1.542191 6.42636,-1.53787 3.70988,0.008 6.96637,1.23366 9.37593,3.527409 0.7256,0.690711 1.74916,1.87303 1.74916,2.02046 0,0.035 -0.32604,0.30777 -0.72453,0.60607 -2.71894,2.03527 -4.42124,4.61503 -5.08654,7.70838 -0.23762,1.10483 -0.26246,3.50333 -0.0482,4.65263 0.33977,1.82272 1.05272,3.53902 2.06274,4.96578 1.06984,1.5113 2.83154,3.03582 4.52009,3.91156 0.42071,0.21819 0.76539,0.44389 0.76594,0.50155 0.003,0.18016 -0.71395,2.08658 -1.15744,3.08313 -1.74694,3.92544 -5.04095,8.561271 -7.32383,10.307221 -1.49394,1.14258 -3.17574,1.63736 -4.94271,1.45414 -1.02618,-0.10641 -1.89055,-0.36429 -3.62736,-1.08222 -1.6543,-0.68383 -2.64064,-0.95538 -3.90226,-1.07436 -1.75977,-0.16595 -3.50858,0.12932 -5.44372,0.91911 -1.96046,0.80014 -2.70817,1.05488 -3.60307,1.22758 -1.12691,0.21747 -1.56826,0.21219 -2.50484,-0.03 z m 9.43526,-43.570131 c -0.083,-0.330539 0.0281,-2.150489 0.17118,-2.804898 0.95592,-4.372322 4.24762,-8.018622 8.52181,-9.439762 1.04957,-0.34898 2.49505,-0.629769 2.61654,-0.50827 0.13229,0.132292 0.10335,1.99063 -0.0447,2.874391 -0.27429,1.636681 -1.06177,3.549441 -2.11257,5.131239 -0.70905,1.067422 -2.17956,2.529861 -3.26832,3.25047 -1.73892,1.1509 -3.41264,1.71428 -5.09293,1.71428 -0.72584,0 -0.73716,-0.003 -0.79095,-0.21745 z"
       style="fill:#3c3538;fill-opacity:1;stroke-width:0.08280412" />
    <text
       id="text1036"
       y="130.48647"
       x="357.27286"
       style="font-style:normal;font-variant:normal;font-weight:normal;font-stretch:normal;font-size:21.24455452px;line-height:1.25;font-family:Poppins;-inkscape-font-specification:Poppins;text-align:center;text-anchor:middle;opacity:1;fill:#060606;fill-opacity:1;stroke:none;stroke-width:5.31113863;stroke-linecap:round;stroke-linejoin:round;stroke-miterlimit:4;stroke-dasharray:none;stroke-opacity:1;paint-order:fill markers stroke"
       xml:space="preserve"
       inkscape:export-filename="C:\Users\user\Desktop\Work\Autodaily\SendinBlue\icons-apps.png"
       inkscape:export-xdpi="200"
       inkscape:export-ydpi="200"><tspan
         style="stroke-width:5.31113863"
         y="130.48647"
         x="357.27286"
         id="tspan1034"
         sodipodi:role="line">Web App for Admins</tspan></text>
    <g
       inkscape:label="Capa 1"
       id="layer1-5"
       transform="matrix(0.85780033,0,0,0.85780033,-9.5014152,-101.44294)">
      <g
         id="g2858">
        <path
           transform="matrix(0.33864636,0,0,0.32609457,212.11606,166.11668)"
           style="opacity:0.52999998;fill:#000000;fill-opacity:1;stroke:none;stroke-width:2.93077397;stroke-linecap:round;stroke-linejoin:round;stroke-miterlimit:4;stroke-dasharray:none;stroke-dashoffset:0;stroke-opacity:1;paint-order:markers stroke fill;filter:url(#filter2248)"
           d="M 502.08277,148.5 A 89.107765,89.107765 0 0 1 412.975,237.60777 89.107765,89.107765 0 0 1 323.86724,148.5 89.107765,89.107765 0 0 1 412.975,59.392235 89.107765,89.107765 0 0 1 502.08277,148.5 Z"
           id="path2226"
           inkscape:connector-curvature="0" />
        <path
           inkscape:connector-curvature="0"
           id="path826"
           d="m 383.29373,211.97671 a 31.325188,31.325188 0 0 1 -31.32519,31.32519 31.325188,31.325188 0 0 1 -31.32518,-31.32519 31.325188,31.325188 0 0 1 31.32518,-31.32519 31.325188,31.325188 0 0 1 31.32519,31.32519 z"
           style="opacity:1;fill:url(#linearGradient2129);fill-opacity:1;stroke:#cdcdcd;stroke-width:0.09301235;stroke-linecap:round;stroke-linejoin:round;stroke-miterlimit:4;stroke-dasharray:none;stroke-dashoffset:0;stroke-opacity:1;paint-order:markers stroke fill" />
        <path
           inkscape:connector-curvature="0"
           id="circle828"
           d="m 380.83911,211.97671 a 28.870571,28.870571 0 0 1 -28.87057,28.87057 28.870571,28.870571 0 0 1 -28.87057,-28.87057 28.870571,28.870571 0 0 1 28.87057,-28.87057 28.870571,28.870571 0 0 1 28.87057,28.87057 z"
           style="opacity:1;fill:url(#radialGradient2137);fill-opacity:1;stroke:none;stroke-width:0.94955933;stroke-linecap:round;stroke-linejoin:round;stroke-miterlimit:4;stroke-dasharray:none;stroke-dashoffset:0;stroke-opacity:1;paint-order:markers stroke fill" />
        <path
           inkscape:connector-curvature="0"
           id="rect830"
           d="m 351.96854,184.61172 c -0.23319,0 -0.42092,0.18772 -0.42092,0.42092 v 4.85517 c 0,0.2332 0.18773,0.42092 0.42092,0.42092 0.2332,0 0.42092,-0.18772 0.42092,-0.42092 v -4.85517 c 0,-0.2332 -0.18772,-0.42092 -0.42092,-0.42092 z m -2.75367,0.17404 c -0.0279,-0.003 -0.0566,-0.003 -0.0856,3.5e-4 -0.23194,0.0242 -0.39917,0.2304 -0.37495,0.46234 l 0.21218,2.03119 c 0.0242,0.23194 0.23041,0.39918 0.46233,0.37496 0.23195,-0.0242 0.39919,-0.2304 0.37496,-0.46234 l -0.212,-2.03118 c -0.0212,-0.20295 -0.18177,-0.35637 -0.37695,-0.37532 z m 5.5266,0.002 c -0.19519,0.0188 -0.35578,0.17221 -0.37714,0.37513 l -0.21363,2.03102 c -0.0244,0.23192 0.14285,0.43831 0.37478,0.4627 0.23191,0.0244 0.43811,-0.14268 0.46251,-0.3746 l 0.21364,-2.03119 c 0.0244,-0.23192 -0.14286,-0.43814 -0.37478,-0.46252 -0.029,-0.003 -0.0575,-0.003 -0.0854,-5.2e-4 z m -8.3553,0.4082 c -0.028,2.2e-4 -0.0565,0.003 -0.085,0.009 -0.22814,0.0483 -0.37294,0.27089 -0.32464,0.49903 l 1.00552,4.74981 c 0.0483,0.22814 0.27088,0.37293 0.49902,0.32464 0.22814,-0.0483 0.37294,-0.27072 0.32465,-0.49886 l -1.00552,-4.74998 c -0.0423,-0.19963 -0.21792,-0.33543 -0.41401,-0.3339 z m 11.18382,0.004 c -0.19609,-0.002 -0.3718,0.13394 -0.41419,0.33353 l -1.00897,4.74925 c -0.0485,0.22811 0.0962,0.45076 0.32427,0.49922 0.22811,0.0485 0.45076,-0.0962 0.49921,-0.32428 l 1.00897,-4.74926 c 0.0485,-0.2281 -0.0962,-0.45076 -0.32427,-0.49921 -0.0285,-0.006 -0.057,-0.009 -0.085,-0.009 z m -13.88337,0.75717 c -0.0545,-0.005 -0.11077,0.001 -0.16622,0.0194 -0.22178,0.0721 -0.34238,0.3085 -0.27031,0.53028 l 0.6311,1.94236 c 0.0721,0.22179 0.30868,0.34238 0.53046,0.27032 0.22179,-0.0721 0.3422,-0.30868 0.27013,-0.53046 l -0.63109,-1.94236 c -0.054,-0.16634 -0.20059,-0.27568 -0.36407,-0.28958 z m 16.56765,0.001 c -0.16348,0.0139 -0.30999,0.12324 -0.36406,0.28957 l -0.63147,1.94218 c -0.0721,0.22177 0.0484,0.45837 0.27014,0.53046 0.22178,0.0721 0.45837,-0.0484 0.53047,-0.27013 l 0.63146,-1.94236 c 0.0721,-0.22178 -0.0484,-0.45837 -0.27014,-0.53046 -0.0554,-0.018 -0.11191,-0.0239 -0.1664,-0.0193 z m -19.23721,0.9759 c -0.0547,0.001 -0.11004,0.013 -0.16331,0.0367 -0.21298,0.0947 -0.30836,0.34244 -0.21364,0.55553 l 1.97197,4.43662 c 0.0947,0.21308 0.34244,0.30836 0.55553,0.21364 0.21298,-0.0947 0.30854,-0.34244 0.21382,-0.55553 l -1.97216,-4.43662 c -0.071,-0.15983 -0.22817,-0.25351 -0.39221,-0.25033 z m 21.93693,0.0149 c -0.16403,-0.003 -0.32132,0.0901 -0.39257,0.24979 l -1.97798,4.4339 c -0.095,0.21296 -4e-5,0.46088 0.21292,0.55589 0.21297,0.095 0.46088,5e-5 0.5559,-0.21291 l 1.97796,-4.43389 c 0.095,-0.21297 5e-5,-0.46089 -0.21291,-0.5559 -0.0532,-0.0237 -0.10864,-0.0357 -0.16332,-0.0369 z m -24.41484,1.29618 c -0.0808,-0.006 -0.16406,0.012 -0.23979,0.0558 -0.20196,0.1166 -0.27065,0.37302 -0.15406,0.57497 l 1.02115,1.76869 c 0.1166,0.20196 0.373,0.27065 0.57496,0.15405 0.20195,-0.1166 0.27065,-0.37301 0.15406,-0.57497 l -1.02115,-1.76868 c -0.0729,-0.12623 -0.20047,-0.20041 -0.33517,-0.20983 z m 26.85877,0 c -0.13468,0.009 -0.26211,0.0836 -0.33498,0.20983 l -1.02133,1.76868 c -0.1166,0.20196 -0.0477,0.45837 0.15424,0.57497 0.20196,0.1166 0.45837,0.0479 0.57497,-0.15405 l 1.02114,-1.76869 c 0.1166,-0.20195 0.0479,-0.45837 -0.15406,-0.57497 -0.0757,-0.0437 -0.15916,-0.0614 -0.23998,-0.0558 z m -29.26491,1.50073 c -0.081,0.003 -0.16211,0.029 -0.2329,0.0803 -0.18875,0.13693 -0.23048,0.39911 -0.0935,0.58787 l 2.85086,3.92995 c 0.13693,0.18876 0.39929,0.23049 0.58805,0.0936 0.18876,-0.13693 0.23049,-0.39911 0.0935,-0.58787 l -2.85104,-3.92995 c -0.0856,-0.11798 -0.22004,-0.17847 -0.35497,-0.17386 z m 31.70122,0.0214 c -0.13493,-0.005 -0.26941,0.0555 -0.35516,0.17331 l -2.8563,3.92614 c -0.1372,0.18857 -0.0958,0.45086 0.0928,0.58805 0.18858,0.13718 0.45087,0.0959 0.58806,-0.0926 l 2.85613,-3.92614 c 0.13718,-0.18858 0.0957,-0.45086 -0.0928,-0.58805 -0.0707,-0.0514 -0.15176,-0.0778 -0.23272,-0.0807 z m -33.85196,1.78231 c -0.10744,-0.006 -0.21708,0.0299 -0.30374,0.10791 -0.17332,0.15602 -0.18725,0.42109 -0.0312,0.59441 l 1.36648,1.51799 c 0.15601,0.17332 0.42109,0.18726 0.59441,0.0312 0.17332,-0.15602 0.18726,-0.42127 0.0312,-0.59459 l -1.3663,-1.51781 c -0.078,-0.0867 -0.18339,-0.13351 -0.29085,-0.13916 z m 35.97562,0.003 c -0.10745,0.006 -0.21282,0.0525 -0.29084,0.13915 l -1.36648,1.51763 c -0.15606,0.1733 -0.14224,0.43855 0.0311,0.59459 0.17329,0.15604 0.43837,0.14205 0.59441,-0.0312 l 1.36666,-1.51762 c 0.15605,-0.17331 0.14205,-0.43856 -0.0312,-0.59459 -0.0867,-0.078 -0.19611,-0.11354 -0.30357,-0.10791 z m -38.03696,1.97705 c -0.10745,0.006 -0.21266,0.0525 -0.29067,0.13916 -0.15602,0.17332 -0.14207,0.43839 0.0312,0.59441 l 3.60841,3.24834 c 0.17332,0.15603 0.43839,0.14207 0.5944,-0.0312 0.15603,-0.17331 0.14226,-0.43839 -0.0311,-0.59441 l -3.60858,-3.24834 c -0.0867,-0.078 -0.1963,-0.11356 -0.30376,-0.10791 z m 40.10831,0.0142 c -0.10745,-0.006 -0.21722,0.0298 -0.30393,0.10773 l -3.61059,3.24581 c -0.17342,0.15589 -0.18768,0.42097 -0.0318,0.5944 0.1559,0.17342 0.42117,0.18751 0.59459,0.0316 l 3.61077,-3.2458 c 0.17342,-0.1559 0.1875,-0.42098 0.0316,-0.59441 -0.078,-0.0867 -0.18322,-0.13361 -0.29066,-0.13933 z m -41.8225,2.18998 c -0.13494,-0.005 -0.26949,0.0558 -0.35515,0.17367 -0.13707,0.18866 -0.0955,0.4508 0.0932,0.58787 l 1.65224,1.20044 c 0.18866,0.13708 0.45079,0.0957 0.58786,-0.093 0.13708,-0.18866 0.0956,-0.45098 -0.093,-0.58805 l -1.65224,-1.20044 c -0.0707,-0.0514 -0.15193,-0.0776 -0.23289,-0.0805 z m 43.53505,0.0153 c -0.081,0.003 -0.16211,0.0289 -0.23289,0.0803 l -1.65297,1.19936 c -0.18875,0.13694 -0.2305,0.39929 -0.0936,0.58805 0.13695,0.18875 0.39912,0.23031 0.58787,0.0934 l 1.65316,-1.19935 c 0.18875,-0.13694 0.23031,-0.39912 0.0934,-0.58787 -0.0856,-0.11797 -0.22004,-0.17847 -0.35497,-0.17385 z m -45.13697,2.33585 c -0.13469,0.009 -0.26211,0.0836 -0.33499,0.20982 -0.1166,0.20195 -0.0479,0.45837 0.15405,0.57497 l 4.20463,2.42758 c 0.20195,0.1166 0.45837,0.0479 0.57497,-0.15405 0.1166,-0.20195 0.0479,-0.45837 -0.15405,-0.57497 l -4.20463,-2.42759 c -0.0757,-0.0437 -0.15917,-0.0614 -0.23998,-0.0558 z m 46.72744,0 c -0.0808,-0.006 -0.16425,0.012 -0.23998,0.0558 l -4.20463,2.42759 c -0.20195,0.1166 -0.27065,0.37302 -0.15405,0.57497 0.1166,0.20195 0.37302,0.27065 0.57497,0.15405 l 4.20482,-2.42758 c 0.20195,-0.1166 0.27064,-0.37302 0.15404,-0.57497 -0.0729,-0.12622 -0.20048,-0.20041 -0.33517,-0.20982 z m -47.9386,2.50606 c -0.16403,-0.004 -0.32133,0.0899 -0.39258,0.2496 -0.095,0.21298 -6e-5,0.46091 0.21292,0.5559 l 1.86532,0.83202 c 0.21298,0.095 0.46091,7e-5 0.5559,-0.2129 0.095,-0.21298 -1.2e-4,-0.46091 -0.21309,-0.5559 l -1.86515,-0.83202 c -0.0532,-0.0238 -0.10865,-0.0356 -0.16332,-0.0367 z m 49.15794,0.0173 c -0.0547,10e-4 -0.11024,0.013 -0.16351,0.0367 l -1.86569,0.83057 c -0.21304,0.0949 -0.3083,0.34267 -0.21346,0.55571 0.0949,0.21304 0.34286,0.3083 0.5559,0.21346 l 1.8657,-0.83076 c 0.21303,-0.0948 0.30811,-0.34267 0.21327,-0.55571 -0.0711,-0.15978 -0.22818,-0.25323 -0.39221,-0.24997 z m -50.23739,2.60199 c -0.16349,0.0137 -0.31006,0.12291 -0.36424,0.28921 -0.0722,0.22172 0.048,0.45839 0.26977,0.53064 l 4.61629,1.50418 c 0.22171,0.0722 0.45839,-0.0481 0.53064,-0.26977 0.0722,-0.22172 -0.048,-0.4584 -0.26977,-0.53064 l -4.61628,-1.50419 c -0.0554,-0.0181 -0.11192,-0.024 -0.16641,-0.0194 z m 51.31484,0.018 c -0.0545,-0.005 -0.11078,10e-4 -0.16623,0.0194 l -4.61736,1.50092 c -0.22178,0.0721 -0.34223,0.30869 -0.27014,0.53046 0.0721,0.22177 0.30868,0.34223 0.53046,0.27014 l 4.61719,-1.50092 c 0.22178,-0.0721 0.3424,-0.30869 0.27032,-0.53046 -0.0541,-0.16633 -0.20077,-0.2757 -0.36424,-0.28957 z m -51.98736,2.73152 c -0.1961,-0.002 -0.37196,0.13412 -0.41438,0.33371 -0.0485,0.2281 0.0962,0.45073 0.32427,0.49922 l 1.99777,0.42455 c 0.2281,0.0485 0.45072,-0.0962 0.49921,-0.32427 0.0485,-0.22811 -0.0962,-0.45074 -0.32427,-0.49922 l -1.99759,-0.42455 c -0.0285,-0.006 -0.057,-0.009 -0.085,-0.009 z m 52.65462,0.004 c -0.028,2.3e-4 -0.0563,0.004 -0.0848,0.009 l -1.99778,0.42437 c -0.2281,0.0485 -0.37271,0.27093 -0.32426,0.49904 0.0485,0.2281 0.2711,0.3729 0.49921,0.32445 l 1.99759,-0.42437 c 0.2281,-0.0485 0.3729,-0.27111 0.32445,-0.49922 -0.0424,-0.19959 -0.21829,-0.33537 -0.41437,-0.33371 z m -53.16365,2.76167 c -0.1952,0.0187 -0.35587,0.17185 -0.37731,0.37477 -0.0245,0.2319 0.14232,0.43838 0.37422,0.46288 l 4.82829,0.51048 c 0.2319,0.0245 0.43838,-0.1425 0.46288,-0.37441 0.0245,-0.2319 -0.1425,-0.43838 -0.37441,-0.46288 l -4.82828,-0.51048 c -0.029,-0.003 -0.0575,-0.003 -0.0854,-3.5e-4 z m 53.6763,0.0363 c -0.0279,-0.003 -0.0566,-0.003 -0.0856,3.5e-4 l -4.82883,0.50394 c -0.23194,0.0242 -0.39914,0.2304 -0.37496,0.46233 0.0242,0.23194 0.2304,0.39918 0.46234,0.37496 l 4.82883,-0.50394 c 0.23193,-0.0242 0.39914,-0.2304 0.37496,-0.46234 -0.0212,-0.20294 -0.1816,-0.35634 -0.37678,-0.37532 z m -53.75805,2.79473 c -0.2332,0 -0.42091,0.18772 -0.42091,0.42092 0,0.23319 0.18771,0.42091 0.42091,0.42091 h 2.04228 c 0.23319,0 0.4211,-0.18772 0.4211,-0.42091 0,-0.2332 -0.18791,-0.42092 -0.4211,-0.42092 z m 51.79298,0 c -0.23319,0 -0.42092,0.18772 -0.42092,0.42092 10e-6,0.23319 0.18773,0.42091 0.42092,0.42091 h 2.04228 c 0.23319,0 0.42092,-0.18772 0.42092,-0.42091 0,-0.2332 -0.18773,-0.42092 -0.42092,-0.42092 z m -46.80319,2.29461 c -0.0279,-0.003 -0.0564,-0.003 -0.0854,3.5e-4 l -4.82902,0.50394 c -0.23194,0.0242 -0.39913,0.2304 -0.37495,0.46233 0.0242,0.23194 0.2304,0.39918 0.46233,0.37496 l 4.82902,-0.50394 c 0.23194,-0.0242 0.39913,-0.2304 0.37495,-0.46234 -0.0212,-0.20294 -0.18177,-0.35634 -0.37695,-0.37531 z m 43.85314,0.0298 c -0.19521,0.0187 -0.35588,0.17186 -0.37732,0.37478 -0.0245,0.2319 0.14233,0.43838 0.37423,0.46288 l 4.82829,0.51048 c 0.23191,0.0245 0.43837,-0.14251 0.46288,-0.37441 0.0245,-0.2319 -0.14251,-0.43838 -0.37441,-0.46288 l -4.8281,-0.51048 c -0.029,-0.003 -0.0577,-0.003 -0.0856,-3.5e-4 z m -46.2602,2.8436 c -0.028,2.4e-4 -0.0565,0.003 -0.085,0.009 l -1.99777,0.42436 c -0.22811,0.0485 -0.37271,0.27111 -0.32427,0.49922 0.0485,0.22811 0.27111,0.37272 0.49922,0.32427 l 1.99777,-0.42419 c 0.2281,-0.0485 0.37271,-0.27111 0.32426,-0.49921 -0.0424,-0.1996 -0.2181,-0.33537 -0.41419,-0.33372 z m 48.66925,0.004 c -0.19609,-0.002 -0.37177,0.13394 -0.41419,0.33353 -0.0485,0.2281 0.096,0.45074 0.32409,0.49922 l 1.99777,0.42455 c 0.22809,0.0485 0.45073,-0.096 0.49921,-0.32409 0.0485,-0.2281 -0.0962,-0.45092 -0.32426,-0.4994 l -1.9976,-0.42455 c -0.0285,-0.006 -0.057,-0.009 -0.085,-0.009 z m -45.30519,1.65787 c -0.0545,-0.005 -0.11077,0.001 -0.16622,0.0194 l -4.61736,1.50091 c -0.22178,0.0721 -0.34223,0.30869 -0.27014,0.53046 0.0721,0.22178 0.30868,0.34222 0.53046,0.27014 l 4.61719,-1.50092 c 0.22178,-0.0721 0.34241,-0.30869 0.27032,-0.53046 -0.0541,-0.16633 -0.20077,-0.2757 -0.36425,-0.28957 z m 41.93713,0.0149 c -0.16349,0.0137 -0.31005,0.12292 -0.36423,0.28921 -0.0722,0.22173 0.048,0.4584 0.26977,0.53065 l 4.61628,1.50418 c 0.22172,0.0722 0.4584,-0.0481 0.53064,-0.26977 0.0723,-0.22172 -0.048,-0.4584 -0.26977,-0.53065 l -4.61628,-1.50418 c -0.0554,-0.0181 -0.11191,-0.024 -0.16641,-0.0194 z m -43.69909,3.27251 c -0.0547,0.001 -0.11006,0.0128 -0.16332,0.0365 l -1.86587,0.83075 c -0.21304,0.0948 -0.30812,0.34267 -0.21328,0.55571 0.0949,0.21304 0.34268,0.30812 0.55571,0.21328 l 1.86589,-0.83058 c 0.21303,-0.0948 0.30811,-0.34267 0.21327,-0.55571 -0.0711,-0.15978 -0.22837,-0.25323 -0.3924,-0.24997 z m 45.45888,0.016 c -0.16403,-0.004 -0.32133,0.0899 -0.39258,0.24961 -0.095,0.21297 -6e-5,0.4609 0.21291,0.55589 l 1.86515,0.83202 c 0.21297,0.095 0.46091,6e-5 0.5559,-0.21291 0.095,-0.21297 6e-5,-0.4609 -0.21291,-0.55589 l -1.86515,-0.83203 c -0.0532,-0.0238 -0.10864,-0.0356 -0.16332,-0.0367 z m -41.82613,0.91214 c -0.0808,-0.006 -0.16424,0.012 -0.23998,0.0558 l -4.20463,2.42758 c -0.20195,0.1166 -0.27065,0.37302 -0.15405,0.57497 0.1166,0.20195 0.37302,0.27065 0.57497,0.15405 l 4.20463,-2.4274 c 0.20195,-0.1166 0.27064,-0.3732 0.15405,-0.57515 -0.0729,-0.12622 -0.2003,-0.20041 -0.33499,-0.20982 z m 38.20028,0 c -0.13469,0.009 -0.26229,0.0836 -0.33517,0.20982 -0.1166,0.20195 -0.0479,0.45855 0.15405,0.57515 l 4.20463,2.4274 c 0.20196,0.1166 0.45855,0.0479 0.57515,-0.15405 0.1166,-0.20195 0.0479,-0.45837 -0.15404,-0.57497 l -4.20482,-2.42758 c -0.0757,-0.0437 -0.15899,-0.0614 -0.2398,-0.0558 z m -39.24903,3.56244 c -0.081,0.003 -0.16211,0.0291 -0.2329,0.0805 l -1.65296,1.19935 c -0.18875,0.13694 -0.2305,0.39912 -0.0936,0.58787 0.13695,0.18875 0.39912,0.2305 0.58787,0.0935 l 1.65314,-1.19935 c 0.18877,-0.13693 0.23051,-0.39911 0.0936,-0.58786 -0.0856,-0.11797 -0.22022,-0.17866 -0.35516,-0.17404 z m 40.28761,0.0142 c -0.13494,-0.005 -0.26948,0.0558 -0.35515,0.17367 -0.13708,0.18865 -0.0955,0.45098 0.0932,0.58805 l 1.65224,1.20044 c 0.18866,0.13707 0.4508,0.0955 0.58787,-0.0932 0.13707,-0.18866 0.0956,-0.4508 -0.093,-0.58787 l -1.65224,-1.20044 c -0.0707,-0.0514 -0.15193,-0.0778 -0.23289,-0.0807 z m -36.54387,0.14533 c -0.10743,-0.006 -0.21702,0.0298 -0.30374,0.10773 l -3.61076,3.2458 c -0.17342,0.15589 -0.18751,0.42098 -0.0316,0.59441 0.15589,0.17342 0.42097,0.1875 0.5944,0.0316 l 3.61077,-3.2458 c 0.17342,-0.15589 0.18751,-0.42098 0.0316,-0.59441 -0.0779,-0.0867 -0.18322,-0.13361 -0.29067,-0.13933 z m 32.80012,0.0116 c -0.10745,0.006 -0.21283,0.0525 -0.29084,0.13915 -0.15603,0.17332 -0.14207,0.43839 0.0312,0.59441 l 3.60841,3.24834 c 0.17332,0.15604 0.43857,0.14208 0.59459,-0.0312 0.15603,-0.17331 0.14207,-0.43839 -0.0312,-0.5944 l -3.6086,-3.24835 c -0.0867,-0.078 -0.19611,-0.11355 -0.30356,-0.10791 z m -29.37464,3.08358 c -0.13493,-0.005 -0.2696,0.0554 -0.35534,0.1733 l -2.85613,3.92614 c -0.13719,0.18858 -0.0959,0.45087 0.0926,0.58805 0.18857,0.13719 0.45087,0.0959 0.58805,-0.0927 l 2.85613,-3.92614 c 0.13718,-0.18857 0.0959,-0.45086 -0.0926,-0.58805 -0.0707,-0.0514 -0.15175,-0.0778 -0.23271,-0.0806 z m 25.93573,0.0176 c -0.081,0.003 -0.16211,0.0289 -0.2329,0.0803 -0.18875,0.13694 -0.23048,0.39911 -0.0936,0.58787 l 2.85086,3.92995 c 0.13693,0.18876 0.39911,0.2305 0.58787,0.0936 0.18876,-0.13693 0.23049,-0.3991 0.0936,-0.58786 l -2.85086,-3.92996 c -0.0856,-0.11797 -0.22004,-0.17846 -0.35498,-0.17385 z m -29.6228,0.6064 c -0.10745,0.006 -0.21282,0.0525 -0.29084,0.13915 l -1.36649,1.51763 c -0.15605,0.1733 -0.14223,0.43855 0.0311,0.59459 0.1733,0.15604 0.43837,0.14205 0.5944,-0.0313 l 1.36666,-1.51762 c 0.15606,-0.1733 0.14206,-0.43856 -0.0312,-0.59459 -0.0867,-0.078 -0.19611,-0.11354 -0.30357,-0.10791 z m 33.33076,0.002 c -0.10745,-0.006 -0.21691,0.0299 -0.30356,0.10791 -0.17333,0.156 -0.18726,0.42108 -0.0313,0.5944 l 1.3663,1.51799 c 0.15602,0.17333 0.42109,0.18726 0.59442,0.0312 0.17332,-0.15601 0.18726,-0.42126 0.0312,-0.59459 l -1.36631,-1.5178 c -0.078,-0.0867 -0.18339,-0.13351 -0.29084,-0.13916 z m -25.65524,1.68366 c -0.16403,-0.004 -0.32114,0.0899 -0.39239,0.24961 l -1.97816,4.43389 c -0.095,0.21297 -5e-5,0.46089 0.21292,0.5559 0.21296,0.095 0.46089,5e-5 0.55589,-0.21291 l 1.97815,-4.4339 c 0.095,-0.21296 5e-5,-0.46089 -0.21292,-0.55589 -0.0532,-0.0238 -0.10881,-0.0356 -0.16349,-0.0367 z m 17.95556,0.0122 c -0.0547,0.001 -0.11023,0.0128 -0.1635,0.0365 -0.21297,0.0947 -0.30836,0.34244 -0.21363,0.55553 l 1.97196,4.43662 c 0.0947,0.21297 0.34262,0.30836 0.55571,0.21364 0.21298,-0.0947 0.30836,-0.34244 0.21364,-0.55553 l -1.97197,-4.43662 c -0.071,-0.15973 -0.22818,-0.25329 -0.39221,-0.25015 z m -21.43154,1.35867 c -0.13468,0.009 -0.26212,0.0836 -0.33498,0.20982 l -1.02115,1.76869 c -0.11659,0.20195 -0.0479,0.45837 0.15406,0.57497 0.20195,0.1166 0.45837,0.0479 0.57496,-0.15405 l 1.02115,-1.76869 c 0.11659,-0.20195 0.0479,-0.45837 -0.15406,-0.57497 -0.0757,-0.0437 -0.15916,-0.0614 -0.23998,-0.0558 z m 24.93421,0 c -0.0808,-0.006 -0.16406,0.0121 -0.23979,0.0558 -0.20195,0.1166 -0.27065,0.37302 -0.15405,0.57497 l 1.02114,1.76869 c 0.1166,0.20195 0.37302,0.27064 0.57496,0.15405 0.20196,-0.1166 0.27066,-0.37302 0.15406,-0.57497 l -1.02114,-1.76869 c -0.0729,-0.12622 -0.20049,-0.20041 -0.33518,-0.20982 z m -17.0545,0.0634 c -0.19609,-0.002 -0.3718,0.13394 -0.41419,0.33354 l -1.00897,4.74926 c -0.0485,0.2281 0.0962,0.45076 0.32427,0.49921 0.22811,0.0485 0.45076,-0.0962 0.49922,-0.32427 l 1.00896,-4.74926 c 0.0485,-0.2281 -0.0962,-0.45076 -0.32427,-0.49921 -0.0285,-0.006 -0.057,-0.009 -0.085,-0.009 z m 9.1599,0.003 c -0.028,2.2e-4 -0.0563,0.003 -0.0848,0.009 -0.22814,0.0483 -0.37294,0.27071 -0.32465,0.49885 l 1.00553,4.74999 c 0.0483,0.22814 0.27088,0.37293 0.49903,0.32464 0.22814,-0.0483 0.37293,-0.27089 0.32464,-0.49903 l -1.0057,-4.74965 c -0.0423,-0.19963 -0.21793,-0.33543 -0.41402,-0.33391 z m -4.5725,0.47905 c -0.23319,0 -0.42092,0.18772 -0.42092,0.42092 v 4.85517 c 0,0.2332 0.18773,0.42092 0.42092,0.42092 0.2332,0 0.42092,-0.18772 0.42092,-0.42092 v -4.85517 c 0,-0.2332 -0.18772,-0.42092 -0.42092,-0.42092 z m -7.72657,1.56886 c -0.16347,0.0139 -0.31017,0.12324 -0.36423,0.28957 l -0.63129,1.94236 c -0.0721,0.22178 0.0484,0.45837 0.27014,0.53047 0.22177,0.0721 0.45836,-0.0486 0.53046,-0.27032 l 0.63128,-1.94218 c 0.0721,-0.22177 -0.0484,-0.45836 -0.27013,-0.53046 -0.0554,-0.018 -0.11173,-0.024 -0.16623,-0.0194 z m 15.44987,0.001 c -0.0545,-0.005 -0.11078,0.001 -0.16622,0.0193 -0.22178,0.0721 -0.34238,0.30868 -0.27033,0.53047 l 0.63111,1.94235 c 0.0721,0.22179 0.30868,0.3422 0.53046,0.27014 0.22178,-0.0721 0.34238,-0.3085 0.27032,-0.53028 l -0.63128,-1.94236 c -0.0541,-0.16634 -0.20058,-0.27568 -0.36406,-0.28957 z m -10.36543,1.08181 c -0.1952,0.0188 -0.356,0.17203 -0.37732,0.37496 l -0.21346,2.03119 c -0.0244,0.23192 0.14268,0.43812 0.3746,0.46252 0.23192,0.0244 0.4383,-0.14268 0.4627,-0.3746 l 0.21345,-2.03101 c 0.0244,-0.23192 -0.14268,-0.4383 -0.37458,-0.4627 -0.029,-0.003 -0.0575,-0.003 -0.0854,-3.5e-4 z m 5.26736,0.002 c -0.0279,-0.003 -0.0566,-0.003 -0.0856,3.5e-4 -0.23193,0.0242 -0.39917,0.2304 -0.37495,0.46233 l 0.21218,2.03138 c 0.0242,0.23193 0.2304,0.399 0.46234,0.37478 0.23193,-0.0242 0.39918,-0.23041 0.37496,-0.46234 l -0.212,-2.03119 c -0.0212,-0.20295 -0.18178,-0.35637 -0.37697,-0.37533 z"
           style="opacity:1;fill:#f4f2f3;fill-opacity:1;stroke:none;stroke-width:0.38088897;stroke-linecap:round;stroke-linejoin:round;stroke-miterlimit:4;stroke-dasharray:none;stroke-dashoffset:0;stroke-opacity:1;paint-order:markers stroke fill" />
        <path
           transform="matrix(0.35154274,0,0,0.35154274,206.79018,159.77261)"
           sodipodi:nodetypes="ccccc"
           inkscape:connector-curvature="0"
           id="path2150"
           d="m 469.09621,100.6068 -65.50955,38.06124 -41.41979,65.20654 60.59382,-44.88117 z"
           style="opacity:0.40900005;fill:#000000;fill-opacity:1;stroke:none;stroke-width:1.5614785;stroke-linecap:round;stroke-linejoin:round;stroke-miterlimit:4;stroke-dasharray:none;stroke-dashoffset:0;stroke-opacity:1;paint-order:markers stroke fill;filter:url(#filter2222)" />
        <g
           id="g2847">
          <path
             sodipodi:type="star"
             style="opacity:1;fill:#ff5150;fill-opacity:1;stroke:none;stroke-width:1.01970422;stroke-linecap:round;stroke-linejoin:round;stroke-miterlimit:4;stroke-dasharray:none;stroke-dashoffset:0;stroke-opacity:1;paint-order:markers stroke fill"
             id="path2096"
             sodipodi:sides="3"
             sodipodi:cx="124.97523"
             sodipodi:cy="142.65184"
             sodipodi:r1="18.791006"
             sodipodi:r2="9.395503"
             sodipodi:arg1="1.3089969"
             sodipodi:arg2="2.3561945"
             inkscape:flatsided="true"
             inkscape:rounded="1.35308e-16"
             inkscape:randomized="0"
             d="m 129.8387,160.80256 -23.01419,-23.01419 31.43796,-8.42378 z"
             inkscape:transform-center-y="-13.18648"
             transform="matrix(0.64804473,-0.3316906,-0.36122382,0.63205852,329.21345,156.86272)" />
          <path
             transform="matrix(-0.36122382,0.63205852,0.64804473,-0.3316906,297.96259,186.70411)"
             inkscape:transform-center-y="13.186483"
             d="m 129.8387,160.80256 -23.01419,-23.01419 31.43796,-8.42378 z"
             inkscape:randomized="0"
             inkscape:rounded="1.35308e-16"
             inkscape:flatsided="true"
             sodipodi:arg2="2.3561945"
             sodipodi:arg1="1.3089969"
             sodipodi:r2="9.395503"
             sodipodi:r1="18.791006"
             sodipodi:cy="142.65184"
             sodipodi:cx="124.97523"
             sodipodi:sides="3"
             id="path2099"
             style="opacity:1;fill:#f1f1f1;fill-opacity:1;stroke:none;stroke-width:1.01970422;stroke-linecap:round;stroke-linejoin:round;stroke-miterlimit:4;stroke-dasharray:none;stroke-dashoffset:0;stroke-opacity:1;paint-order:markers stroke fill"
             sodipodi:type="star" />
          <path
             style="opacity:0.24299999;fill:#000000;stroke:none;stroke-width:0.09301235px;stroke-linecap:butt;stroke-linejoin:miter;stroke-opacity:1"
             d="m 331.85294,231.18507 23.41607,-15.75201 16.81513,-22.66472 z"
             id="path2112"
             inkscape:connector-curvature="0" />
        </g>
      </g>
    </g>
    <g
       id="g2442"
       transform="translate(-136.60816,-556.2213)">
      <path
         d="m 582.44223,624.06451 c -1.29797,-3.12211 -3.92686,-6.49275 -5.9912,-7.55811 1.6801,3.29373 2.6525,6.59776 3.02406,9.06361 0,0.005 0.002,0.0169 0.006,0.0497 -3.37698,-8.41704 -9.10312,-11.81105 -13.77895,-19.20101 -0.23611,-0.37367 -0.47284,-0.74834 -0.70348,-1.14326 a 9.1605336,9.1605336 0 0 1 -0.32881,-0.61786 5.430508,5.430508 0 0 1 -0.4465,-1.1813 0.07779172,0.07779172 0 0 0 -0.0679,-0.08 0.10165116,0.10165116 0 0 0 -0.0561,0 c -0.004,10e-4 -0.0104,0.006 -0.0149,0.008 -0.007,0.003 -0.0149,0.009 -0.0219,0.0124 0.003,-0.005 0.0103,-0.0146 0.0125,-0.0169 -7.50206,4.39362 -10.04707,12.52136 -10.28094,16.58778 a 14.943092,14.943092 0 0 0 -8.21933,3.16734 8.8671372,8.8671372 0 0 0 -0.77357,-0.58406 13.835741,13.835741 0 0 1 -0.0837,-7.2985 c -3.06788,1.39689 -5.45408,3.60501 -7.18886,5.55477 h -0.0138 c -1.18391,-1.49954 -1.1004,-6.44615 -1.03292,-7.47894 -0.0142,-0.064 -0.88317,0.45109 -0.997,0.52876 a 21.755957,21.755957 0 0 0 -2.91856,2.50027 26.155662,26.155662 0 0 0 -2.78882,3.34442 c 0,10e-4 -9.4e-4,0.003 -10e-4,0.005 0,-10e-4 9.4e-4,-0.003 10e-4,-0.005 a 25.206255,25.206255 0 0 0 -4.00726,9.04733 c -0.0143,0.0647 -0.0264,0.13185 -0.0403,0.19709 -0.0562,0.26295 -0.25848,1.5782 -0.29389,1.86402 -0.003,0.022 -0.004,0.0431 -0.007,0.0651 a 28.465554,28.465554 0 0 0 -0.48464,4.12035 c 0,0.0509 -0.003,0.10141 -0.003,0.15248 4.7e-4,16.49197 13.37173,29.86096 29.86506,29.86096 14.7711,0 27.03573,-10.72283 29.43683,-24.8076 0.0506,-0.38225 0.0911,-0.76649 0.1357,-1.15209 0.59363,-5.12108 -0.0659,-10.50375 -1.93696,-15.00485 z m -34.42159,23.37405 c 0.13968,0.0667 0.27091,0.13967 0.41431,0.20367 0.006,0.004 0.0142,0.009 0.0202,0.0124 a 15.681492,15.681492 0 0 1 -0.43456,-0.21612 z m 6.84132,-18.01016 z m 24.62133,-3.80135 -0.004,-0.029 c 10e-4,0.0106 0.003,0.0216 0.005,0.0322 z"
         id="shape-base"
         style="fill:url(#a);stroke-width:0.12426791"
         inkscape:connector-curvature="0" />
      <path
         d="m 582.44223,624.06451 c -1.29797,-3.12211 -3.92686,-6.49275 -5.9912,-7.55811 1.6801,3.29373 2.6525,6.59776 3.02406,9.06361 0,-0.007 10e-4,0.006 0.005,0.0281 10e-4,0.0106 0.003,0.0216 0.005,0.0322 2.81778,7.63875 1.2827,15.40649 -0.9294,20.15315 -3.42221,7.34424 -11.7079,14.87114 -24.67662,14.50406 -14.01206,-0.39679 -26.35609,-10.79342 -28.66039,-24.41045 -0.4199,-2.14735 0,-3.23768 0.21125,-4.98116 -0.25735,1.34408 -0.3554,1.7323 -0.48464,4.12035 0,0.051 -0.003,0.10141 -0.003,0.15248 2.5e-4,16.49135 13.37148,29.86034 29.86481,29.86034 14.77111,0 27.03573,-10.72283 29.43684,-24.80761 0.0506,-0.38225 0.0911,-0.76648 0.13569,-1.15208 0.59363,-5.12108 -0.0659,-10.50375 -1.93696,-15.00486 z"
         id="body-outer-ring"
         style="fill:url(#b);stroke-width:0.12426791"
         inkscape:connector-curvature="0" />
      <path
         d="m 582.44223,624.06451 c -1.29797,-3.12211 -3.92686,-6.49275 -5.9912,-7.55811 1.6801,3.29373 2.6525,6.59776 3.02406,9.06361 0,-0.007 10e-4,0.006 0.005,0.0281 10e-4,0.0106 0.003,0.0216 0.005,0.0322 2.81778,7.63875 1.2827,15.40649 -0.9294,20.15315 -3.42221,7.34424 -11.7079,14.87114 -24.67662,14.50406 -14.01206,-0.39679 -26.35609,-10.79342 -28.66039,-24.41045 -0.4199,-2.14735 0,-3.23768 0.21125,-4.98116 -0.25735,1.34408 -0.3554,1.7323 -0.48464,4.12035 0,0.051 -0.003,0.10141 -0.003,0.15248 2.5e-4,16.49135 13.37148,29.86034 29.86481,29.86034 14.77111,0 27.03573,-10.72283 29.43684,-24.80761 0.0506,-0.38225 0.0911,-0.76648 0.13569,-1.15208 0.59363,-5.12108 -0.0659,-10.50375 -1.93696,-15.00486 z"
         id="body-outer-ring-shadow"
         style="fill:url(#c);stroke-width:0.12426791"
         inkscape:connector-curvature="0" />
      <path
         d="m 567.92911,627.5747 c 0.0651,0.0457 0.12427,0.0912 0.18553,0.13669 a 16.242562,16.242562 0 0 0 -2.77242,-3.61768 c -9.28343,-9.28232 -2.43428,-20.12668 -1.27921,-20.67744 0.003,-0.005 0.0103,-0.0146 0.0124,-0.0169 -7.50205,4.39362 -10.04706,12.52137 -10.28093,16.58778 0.34795,-0.0241 0.6949,-0.0533 1.04907,-0.0533 5.59839,0 10.47442,3.07812 13.08554,7.64086 z"
         id="tail-tip"
         style="fill:url(#d);stroke-width:0.12426791"
         inkscape:connector-curvature="0" />
      <path
         d="m 554.86234,629.42803 c -0.0488,0.74288 -2.67351,3.30466 -3.59135,3.30466 -8.49234,0 -9.87084,5.13662 -9.87084,5.13662 0.37615,4.32576 3.38766,7.8879 7.03492,9.77279 0.1664,0.086 0.33478,0.16367 0.50329,0.24046 a 16.498802,16.498802 0 0 0 0.87721,0.35864 13.26473,13.26473 0 0 0 3.88598,0.74946 c 14.88481,0.69814 17.76857,-17.79442 7.02673,-23.16453 2.75092,-0.47843 5.60635,0.62792 7.20095,1.74807 -2.61111,-4.56237 -7.48714,-7.64049 -13.08541,-7.64049 -0.35416,0 -0.701,0.0292 -1.04907,0.0533 a 14.943092,14.943092 0 0 0 -8.21933,3.16734 c 0.45532,0.38523 0.96929,0.90019 2.05216,1.96691 2.02582,1.99661 7.2237,4.06418 7.23476,4.30675 z"
         id="globe-base"
         style="fill:url(#e);stroke-width:0.12426791"
         inkscape:connector-curvature="0" />
      <path
         d="m 554.86234,629.42803 c -0.0488,0.74288 -2.67351,3.30466 -3.59135,3.30466 -8.49234,0 -9.87084,5.13662 -9.87084,5.13662 0.37615,4.32576 3.38766,7.8879 7.03492,9.77279 0.1664,0.086 0.33478,0.16367 0.50329,0.24046 a 16.498802,16.498802 0 0 0 0.87721,0.35864 13.26473,13.26473 0 0 0 3.88598,0.74946 c 14.88481,0.69814 17.76857,-17.79442 7.02673,-23.16453 2.75092,-0.47843 5.60635,0.62792 7.20095,1.74807 -2.61111,-4.56237 -7.48714,-7.64049 -13.08541,-7.64049 -0.35416,0 -0.701,0.0292 -1.04907,0.0533 a 14.943092,14.943092 0 0 0 -8.21933,3.16734 c 0.45532,0.38523 0.96929,0.90019 2.05216,1.96691 2.02582,1.99661 7.2237,4.06418 7.23476,4.30675 z"
         id="globe-shadow"
         style="fill:url(#f);stroke-width:0.12426791"
         inkscape:connector-curvature="0" />
      <path
         d="m 544.18238,622.16109 a 30.32659,30.32659 0 0 1 0.61898,0.41009 13.835741,13.835741 0 0 1 -0.0838,-7.29851 c -3.06793,1.3969 -5.45412,3.60501 -7.1889,5.55478 0.14353,-0.004 4.47539,-0.082 6.65368,1.33364 z"
         id="ear"
         style="fill:url(#g);stroke-width:0.12426791"
         inkscape:connector-curvature="0" />
      <path
         d="m 525.21835,635.87704 c 2.3043,13.61703 14.64833,24.01366 28.66016,24.41044 12.96872,0.36709 21.25441,-7.16031 24.67662,-14.50405 2.21197,-4.74703 3.74718,-12.51378 0.9294,-20.15315 l -9.4e-4,-0.003 -0.004,-0.0289 c -0.003,-0.0221 -0.005,-0.0353 -0.005,-0.0281 0,0.005 0.002,0.0169 0.006,0.0497 1.05926,6.91688 -2.45926,13.61778 -7.95948,18.14859 l -0.0165,0.0389 c -10.71748,8.72647 -20.97319,5.26499 -23.0497,3.84809 a 17.908001,17.908001 0 0 1 -0.43495,-0.2166 c -6.24846,-2.98602 -8.82975,-8.67861 -8.27627,-13.5606 -5.27604,0 -7.07506,-4.44991 -7.07506,-4.44991 0,0 4.73697,-3.37748 10.98006,-0.44003 5.78218,2.7206 11.21245,0.44028 11.21307,0.44003 -0.0111,-0.24257 -5.20894,-2.31014 -7.23526,-4.30663 -1.08274,-1.06671 -1.59684,-1.58106 -2.05216,-1.96691 a 8.8671372,8.8671372 0 0 0 -0.77356,-0.58406 35.158997,35.158997 0 0 0 -0.61898,-0.41008 c -2.17817,-1.41566 -6.51015,-1.33775 -6.65368,-1.33402 h -0.0138 c -1.18391,-1.49954 -1.1004,-6.44615 -1.03292,-7.47894 -0.0142,-0.064 -0.88317,0.45109 -0.997,0.52876 a 21.755957,21.755957 0 0 0 -2.91856,2.50028 26.155662,26.155662 0 0 0 -2.78882,3.34516 c 0,0.001 -9.4e-4,0.003 -10e-4,0.005 0,-10e-4 9.4e-4,-0.003 10e-4,-0.005 a 25.206255,25.206255 0 0 0 -4.00726,9.04732 c -0.0143,0.0648 -1.07492,4.70255 -0.55175,7.10801 z"
         id="body"
         style="fill:url(#h);stroke-width:0.12426791"
         inkscape:connector-curvature="0" />
      <path
         d="m 565.34222,624.09358 a 16.242562,16.242562 0 0 1 2.77242,3.61769 c 0.1644,0.12353 0.318,0.24667 0.44836,0.36684 6.77036,6.23825 3.22301,15.06127 2.95844,15.69007 5.50023,-4.53081 9.01875,-11.23171 7.95949,-18.14859 -3.37698,-8.41691 -9.10312,-11.81092 -13.77895,-19.20088 -0.23611,-0.37367 -0.47284,-0.74834 -0.70348,-1.14326 a 9.1605336,9.1605336 0 0 1 -0.32882,-0.61786 5.430508,5.430508 0 0 1 -0.44649,-1.1813 0.07779172,0.07779172 0 0 0 -0.0679,-0.08 0.10165116,0.10165116 0 0 0 -0.056,0 c -0.004,10e-4 -0.0104,0.006 -0.0149,0.008 -0.007,0.003 -0.0149,0.009 -0.0219,0.0124 -1.15458,0.55026 -8.00372,11.39462 1.27971,20.67681 z"
         id="tail-flame"
         style="fill:url(#i);stroke-width:0.12426791"
         inkscape:connector-curvature="0" />
      <path
         d="m 568.563,628.07811 c -0.13036,-0.12017 -0.28396,-0.24331 -0.44836,-0.36684 -0.0608,-0.0457 -0.12042,-0.0912 -0.18553,-0.13669 -1.59461,-1.12016 -4.45004,-2.22651 -7.20096,-1.74808 10.74185,5.37011 7.85808,23.86267 -7.02673,23.16454 a 13.26473,13.26473 0 0 1 -3.88598,-0.74947 16.715277,16.715277 0 0 1 -0.8772,-0.35863 c -0.16851,-0.0768 -0.33689,-0.15447 -0.50329,-0.24046 0.006,0.004 0.0142,0.009 0.0202,0.0125 2.07652,1.41665 12.33223,4.87838 23.04971,-3.84809 l 0.0165,-0.0389 c 0.26457,-0.62805 3.81193,-9.45145 -2.95844,-15.68982 z"
         id="tail-small"
         style="fill:url(#j);stroke-width:0.12426791"
         inkscape:connector-curvature="0" />
      <path
         d="m 541.40002,637.86943 c 0,0 1.3785,-5.13662 9.87085,-5.13662 0.91809,0 3.54275,-2.56178 3.59134,-3.30465 0.0486,-0.74288 -5.43051,2.28056 -11.21307,-0.44004 -6.24309,-2.93744 -10.98006,0.44004 -10.98006,0.44004 0,0 1.79903,4.44991 7.07507,4.44991 -0.55336,4.88199 2.02793,10.5752 8.27624,13.56061 0.13968,0.0667 0.27091,0.13968 0.41431,0.20367 -3.64701,-1.88501 -6.65852,-5.44715 -7.03468,-9.77292 z"
         id="cheek-tufts"
         style="fill:url(#k);stroke-width:0.12426791"
         inkscape:connector-curvature="0" />
      <path
         d="m 583.07656,624.56793 c -1.29797,-3.12211 -3.92686,-6.49275 -5.9912,-7.55811 1.6801,3.29373 2.6525,6.59776 3.02406,9.06361 0,0.005 0.002,0.0169 0.006,0.0497 -3.37698,-8.41704 -9.10312,-11.81105 -13.77895,-19.20101 -0.23611,-0.37367 -0.47284,-0.74834 -0.70348,-1.14326 a 9.1605336,9.1605336 0 0 1 -0.32881,-0.61786 5.430508,5.430508 0 0 1 -0.4465,-1.1813 0.07779172,0.07779172 0 0 0 -0.0679,-0.08 0.10165116,0.10165116 0 0 0 -0.0561,0 c -0.004,10e-4 -0.0104,0.006 -0.0149,0.008 -0.007,0.003 -0.0149,0.009 -0.0219,0.0124 0.003,-0.005 0.0103,-0.0146 0.0125,-0.0169 -7.50206,4.39362 -10.04707,12.52136 -10.28094,16.58778 0.34795,-0.0241 0.69491,-0.0533 1.04907,-0.0533 5.59864,0 10.47467,3.07811 13.08541,7.64049 -1.5946,-1.12015 -4.45003,-2.22651 -7.20095,-1.74808 10.74184,5.37012 7.85808,23.86267 -7.02673,23.16454 a 13.26473,13.26473 0 0 1 -3.88598,-0.74946 16.715277,16.715277 0 0 1 -0.87721,-0.35864 c -0.16851,-0.0768 -0.33689,-0.15446 -0.50328,-0.24046 0.006,0.004 0.0142,0.009 0.0202,0.0124 a 17.908001,17.908001 0 0 1 -0.43494,-0.2166 c 0.13968,0.0667 0.27091,0.13968 0.41431,0.20367 -3.64726,-1.88489 -6.65877,-5.44703 -7.03493,-9.7728 0,0 1.3785,-5.13661 9.87085,-5.13661 0.91809,0 3.54275,-2.56179 3.59134,-3.30466 -0.0111,-0.24257 -5.20894,-2.31014 -7.23525,-4.30663 -1.08274,-1.06671 -1.59684,-1.58106 -2.05216,-1.96691 a 8.8671372,8.8671372 0 0 0 -0.77353,-0.58408 13.835741,13.835741 0 0 1 -0.0838,-7.29851 c -3.06793,1.3969 -5.45412,3.60501 -7.1889,5.55478 h -0.0138 c -1.1839,-1.49954 -1.10039,-6.44615 -1.03291,-7.47894 -0.0142,-0.064 -0.88317,0.45109 -0.997,0.52876 a 21.755957,21.755957 0 0 0 -2.91856,2.50027 26.155662,26.155662 0 0 0 -2.78795,3.34479 c 0,10e-4 -9.4e-4,0.003 -10e-4,0.005 0,-10e-4 9.4e-4,-0.003 10e-4,-0.005 a 25.206255,25.206255 0 0 0 -4.00727,9.04733 c -0.0143,0.0647 -0.0263,0.13185 -0.0403,0.19709 -0.0562,0.26295 -0.30893,1.59721 -0.34422,1.8834 -0.003,0.022 0.003,-0.0219 0,0 a 34.74096,34.74096 0 0 0 -0.44041,4.16671 c 0,0.0509 -0.003,0.1014 -0.003,0.15247 0,16.49135 13.37123,29.86034 29.86456,29.86034 14.77111,0 27.03574,-10.72283 29.43684,-24.8076 0.0506,-0.38225 0.0911,-0.76649 0.1357,-1.15209 0.59363,-5.12108 -0.0659,-10.50375 -1.93696,-15.00485 z m -2.96267,1.53359 c 10e-4,0.0106 0.003,0.0216 0.005,0.0322 l -9.4e-4,-0.003 z"
         id="overlay-yellow"
         style="fill:url(#l);stroke-width:0.12426791"
         inkscape:connector-curvature="0" />
    </g>
    <g
       id="g1269"
       transform="matrix(0.27986765,0,0,0.27986765,357.10461,-166.86252)">
      <circle
         r="94.275146"
         cy="887.69678"
         cx="-7.9905205"
         id="path1238"
         style="opacity:1;fill:#ffce3e;fill-opacity:1;stroke:none;stroke-width:0.00343958;stroke-linecap:round;stroke-linejoin:round;stroke-miterlimit:4;stroke-dasharray:none;stroke-opacity:1;paint-order:fill markers stroke" />
      <path
         sodipodi:nodetypes="cccccscsssccc"
         inkscape:connector-curvature="0"
         id="path1242"
         transform="matrix(0.26458333,0,0,0.26458333,23.434523,21.833332)"
         d="m -118.77148,2916.2383 c -118.4672,0.046 -229.16465,58.9678 -295.36133,157.2148 3.64567,12.0657 10.73852,24.6031 26.54687,51.6953 26.70065,45.7595 78.25851,133.0388 101.92188,173.1836 23.66337,40.1449 19.34721,33.0128 15.70508,20.7422 -3.64213,-12.2705 -6.77323,-29.9469 -5.57618,-50.8476 1.19706,-20.9008 6.7213,-45.0222 16.84961,-66.1993 10.12832,-21.177 24.67866,-39.1825 41.89453,-53.289 17.21587,-14.1065 37.14534,-20.2742 50.22096,-25.4307 13.07563,-5.1565 19.29136,-9.299 80.058341,-9.5752 60.766979,-0.2762 175.670858,-0.277 240.779299,0.3692 19.32726,0.1918 34.19001,0.4318 46.06836,0.3086 -60.0852,-121.3144 -183.728624,-198.0994 -319.10742,-198.1719 z"
         style="opacity:1;fill:#df5144;fill-opacity:1;stroke:none;stroke-width:31.00346565;stroke-linecap:round;stroke-linejoin:round;stroke-miterlimit:4;stroke-dasharray:none;stroke-opacity:1;paint-order:fill markers stroke" />
      <path
         inkscape:connector-curvature="0"
         id="path1253"
         d="m -86.138115,835.01779 40.876018,38.20879 4.969542,41.21799 -23.093756,-1.46164 z"
         style="opacity:1;fill:#b93322;fill-opacity:0.37878789;stroke:none;stroke-width:1;stroke-linecap:round;stroke-linejoin:round;stroke-miterlimit:4;stroke-dasharray:none;stroke-opacity:0.42929293;paint-order:fill markers stroke" />
      <circle
         r="37.523083"
         cy="887.69678"
         cx="-7.9905205"
         id="path1240"
         style="opacity:1;fill:#4086f4;fill-opacity:1;stroke:#f1f1f1;stroke-width:8.8111372;stroke-linecap:round;stroke-linejoin:round;stroke-miterlimit:4;stroke-dasharray:none;stroke-opacity:1;paint-order:fill markers stroke" />
      <path
         inkscape:transform-center-y="19.232382"
         inkscape:transform-center-x="29.871285"
         style="opacity:1;fill:#15a762;fill-opacity:1;stroke:none;stroke-width:8.20300007;stroke-linecap:round;stroke-linejoin:round;stroke-miterlimit:4;stroke-dasharray:none;stroke-opacity:1;paint-order:fill markers stroke"
         d="m -89.331157,934.35324 c 15.682763,27.139 43.828212,44.7089 75.097394,46.87967 2.282394,-2.43154 4.216837,-5.71536 8.3333193,-12.92169 6.95287,-12.17168 20.1310147,-35.53176 26.1991617,-46.26471 6.068171,-10.73296 5.004943,-8.80046 2.675132,-6.34262 -2.329789,2.45783 -5.965868,5.51372 -10.913328,8.00442 -4.9474843,2.49071 -11.20537362,4.41597 -17.3976981,4.89676 -6.1923029,0.48078 -12.2428979,-0.47124 -17.7527199,-2.54985 -5.509821,-2.0786 -9.559565,-5.82922 -12.4709,-8.14315 -2.911336,-2.31393 -4.682821,-3.19016 -12.785073,-17.07752 -8.102252,-13.88736 -23.303261,-40.21585 -31.768497,-55.22002 -2.512888,-4.45394 -4.424113,-7.89128 -6.023749,-10.59674 -19.848715,29.81656 -21.085915,68.30572 -3.193042,99.33545 z"
         id="path1249"
         inkscape:connector-curvature="0"
         sodipodi:nodetypes="cccccscsssccc" />
      <path
         id="path1255"
         transform="matrix(0.26458333,0,0,0.26458333,23.434523,21.833332)"
         d="m 5.1347656,3371.1465 c -0.5109746,0.042 -3.2977311,3.4879 -6.875,7.2617 -8.8055016,9.2894 -22.5489856,20.8402 -41.2480466,30.2539 -15.260813,7.6828 -33.820092,13.9369 -52.851563,16.9668 l -46.529296,200.4473 c 8.62637,-9.1901 15.93773,-21.5994 31.49609,-48.836 26.278567,-46.0032 76.086759,-134.2939 99.021488,-174.8593 13.6175486,-24.0858 17.7331366,-31.2959 16.9863276,-31.2344 z"
         style="opacity:1;fill:#06894c;fill-opacity:0.34343435;stroke:none;stroke-width:3.77952766;stroke-linecap:round;stroke-linejoin:round;stroke-miterlimit:4;stroke-dasharray:none;stroke-opacity:0.42929293;paint-order:fill markers stroke"
         inkscape:connector-curvature="0" />
      <path
         inkscape:connector-curvature="0"
         style="opacity:1;fill:#e4a32b;fill-opacity:0.32323231;stroke:none;stroke-width:1;stroke-linecap:round;stroke-linejoin:round;stroke-miterlimit:4;stroke-dasharray:none;stroke-opacity:0.42929293;paint-order:fill markers stroke"
         d="m -1.4870084,845.78098 c 0.077212,0.11154 1.23546652,0.29422 2.5734158,0.61465 3.2934374,0.78874 7.7582827,2.4098 12.3890316,5.44907 3.779282,2.48043 7.667559,5.90566 10.879522,9.86563 l 52.085112,-15.85598 c -3.246983,-0.76084 -7.057627,-0.79449 -15.356749,-0.75629 -14.017421,0.0645 -40.837198,0.33176 -53.1662629,0.44305 -7.32040788,0.0661 -9.5169564,0.0769 -9.4040695,0.23987 z"
         id="path1260" />
    </g>
  </g>
</svg>
