<?xml version="1.0" encoding="UTF-8" standalone="no"?>
<!-- Created with Inkscape (http://www.inkscape.org/) -->

<svg
   xmlns:dc="http://purl.org/dc/elements/1.1/"
   xmlns:cc="http://creativecommons.org/ns#"
   xmlns:rdf="http://www.w3.org/1999/02/22-rdf-syntax-ns#"
   xmlns:svg="http://www.w3.org/2000/svg"
   xmlns="http://www.w3.org/2000/svg"
   xmlns:sodipodi="http://sodipodi.sourceforge.net/DTD/sodipodi-0.dtd"
   xmlns:inkscape="http://www.inkscape.org/namespaces/inkscape"
   width="138.45135mm"
   height="24.568451mm"
   viewBox="0 0 138.45135 24.568451"
   version="1.1"
   id="svg958"
   sodipodi:docname="message-us-button-messenger.svg"
   inkscape:version="0.92.4 (5da689c313, 2019-01-14)">
  <defs
     id="defs952" />
  <sodipodi:namedview
     id="base"
     pagecolor="#ffffff"
     bordercolor="#666666"
     borderopacity="1.0"
     inkscape:pageopacity="0.0"
     inkscape:pageshadow="2"
     inkscape:zoom="0.7"
     inkscape:cx="59.772014"
     inkscape:cy="-291.49737"
     inkscape:document-units="mm"
     inkscape:current-layer="layer1"
     showgrid="false"
     inkscape:window-width="1920"
     inkscape:window-height="1017"
     inkscape:window-x="-8"
     inkscape:window-y="-8"
     inkscape:window-maximized="1" />
  <metadata
     id="metadata955">
    <rdf:RDF>
      <cc:Work
         rdf:about="">
        <dc:format>image/svg+xml</dc:format>
        <dc:type
           rdf:resource="http://purl.org/dc/dcmitype/StillImage" />
      </cc:Work>
    </rdf:RDF>
  </metadata>
  <g
     inkscape:label="Layer 1"
     inkscape:groupmode="layer"
     id="layer1"
     transform="translate(-1.228426,-0.47767755)">
    <rect
       style="opacity:1;fill:#0084ff;fill-opacity:1;stroke:none;stroke-width:0.73255813;stroke-miterlimit:4;stroke-dasharray:none;stroke-opacity:1"
       id="rect4547"
       width="96.496002"
       height="23.812498"
       x="22.206102"
       y="0.85565394"
       rx="0"
       ry="0"
       inkscape:export-xdpi="200"
       inkscape:export-ydpi="200" />
    <path
       inkscape:connector-curvature="0"
       id="path4545"
       d="m 36.593893,5.2083054 c -0.2623,-7.32e-4 -0.498477,0.0059 -0.63282,0.02183 -0.989049,0.118908 -1.725775,0.334053 -2.570049,0.750476 -1.842339,0.908709 -3.18388,2.601219 -3.5681,4.5016136 -0.105203,0.520358 -0.130381,0.833578 -0.114477,1.425184 0.02945,1.096296 0.305909,2.033919 0.885319,3.002741 0.340742,0.569755 0.869246,1.18262 1.41265,1.638169 0.143274,0.12011 0.268204,0.238477 0.277632,0.263032 0.0095,0.02454 0.01714,0.560664 0.01714,1.191357 0,0.63071 0.0074,1.16605 0.01641,1.18962 0.009,0.0236 0.0304,0.0428 0.0474,0.0428 0.01707,-5e-5 0.329571,-0.16566 0.694553,-0.36804 1.400944,-0.77682 1.593306,-0.87786 1.671976,-0.87786 0.04329,0 0.138886,0.0175 0.212353,0.0389 0.202583,0.0589 0.717886,0.14478 1.081587,0.18029 0.414371,0.0405 1.340009,0.0179 1.719958,-0.0421 1.442202,-0.22737 2.629774,-0.758956 3.699301,-1.655944 1.151326,-0.965592 1.941873,-2.353262 2.197397,-3.857109 0.06827,-0.401859 0.0674,-1.459622 -0.0015,-1.882476 -0.173045,-1.0611466 -0.685301,-2.1896526 -1.359013,-2.9939506 -1.146441,-1.368771 -2.661291,-2.210758 -4.508986,-2.506302 -0.231745,-0.03707 -0.741495,-0.06036 -1.178664,-0.06219 z m -0.634674,4.736289 c 0.04556,0 0.268966,0.2220746 1.232837,1.2256426 0.373583,0.388966 0.584398,0.589028 0.620543,0.588801 0.03011,-2.13e-4 0.438699,-0.214566 0.907962,-0.476383 0.816135,-0.45535 1.301579,-0.724756 1.923105,-1.067359 0.156422,-0.08622 0.313285,-0.165411 0.348572,-0.175953 l 0.0641,-0.01912 -0.0471,0.07984 c -0.06593,0.111583 0.125063,-0.09407 -2.703358,2.910841 -0.521216,0.553734 -0.881159,0.915368 -0.911084,0.915368 -0.02872,0 -0.201299,-0.162452 -0.411419,-0.387296 -0.19908,-0.213035 -0.579556,-0.621356 -0.845482,-0.907383 -0.331475,-0.356521 -0.501385,-0.52008 -0.540349,-0.52008 -0.05773,0 -0.355401,0.156541 -1.522205,0.800408 -1.170613,0.645962 -1.705864,0.932957 -1.74028,0.933037 -0.01861,5.9e-5 -0.03384,-0.01238 -0.03384,-0.02762 0,-0.02366 1.224281,-1.346105 1.867606,-2.017319 0.114228,-0.11918 0.291543,-0.308106 0.394072,-0.419836 0.626997,-0.683294 1.358727,-1.4355576 1.396351,-1.4355576 z"
       style="opacity:1;fill:#ffffff;fill-opacity:1;stroke:none;stroke-width:0.10237218;stroke-miterlimit:4;stroke-dasharray:none;stroke-opacity:1"
       inkscape:export-xdpi="200"
       inkscape:export-ydpi="200" />
    <text
       xml:space="preserve"
       style="font-style:normal;font-variant:normal;font-weight:500;font-stretch:normal;font-size:10.33047962px;line-height:1.25;font-family:Poppins;-inkscape-font-specification:'Poppins Medium';letter-spacing:0px;word-spacing:0px;fill:#ffffff;fill-opacity:1;stroke:none;stroke-width:0.25826201"
       x="48.879726"
       y="15.778863"
       id="text4551"
       inkscape:export-xdpi="200"
       inkscape:export-ydpi="200"><tspan
         sodipodi:role="line"
         id="tspan4549"
         x="48.879726"
         y="15.778863"
         style="font-style:normal;font-variant:normal;font-weight:500;font-stretch:normal;font-family:Poppins;-inkscape-font-specification:'Poppins Medium';fill:#ffffff;fill-opacity:1;stroke-width:0.25826201">Message Us</tspan></text>
  </g>
</svg>
