<?xml version="1.0" encoding="UTF-8" standalone="no"?>
<!-- Created with Inkscape (http://www.inkscape.org/) -->

<svg
   xmlns:dc="http://purl.org/dc/elements/1.1/"
   xmlns:cc="http://creativecommons.org/ns#"
   xmlns:rdf="http://www.w3.org/1999/02/22-rdf-syntax-ns#"
   xmlns:svg="http://www.w3.org/2000/svg"
   xmlns="http://www.w3.org/2000/svg"
   xmlns:sodipodi="http://sodipodi.sourceforge.net/DTD/sodipodi-0.dtd"
   xmlns:inkscape="http://www.inkscape.org/namespaces/inkscape"
   width="138.45135mm"
   height="24.568451mm"
   viewBox="0 0 138.45135 24.568451"
   version="1.1"
   id="svg958"
   sodipodi:docname="message-us-button-whatsapp.svg"
   inkscape:version="0.92.4 (5da689c313, 2019-01-14)">
  <defs
     id="defs952" />
  <sodipodi:namedview
     id="base"
     pagecolor="#ffffff"
     bordercolor="#666666"
     borderopacity="1.0"
     inkscape:pageopacity="0.0"
     inkscape:pageshadow="2"
     inkscape:zoom="0.7"
     inkscape:cx="59.772014"
     inkscape:cy="-291.49737"
     inkscape:document-units="mm"
     inkscape:current-layer="layer1"
     showgrid="false"
     inkscape:window-width="1920"
     inkscape:window-height="1017"
     inkscape:window-x="-8"
     inkscape:window-y="-8"
     inkscape:window-maximized="1" />
  <metadata
     id="metadata955">
    <rdf:RDF>
      <cc:Work
         rdf:about="">
        <dc:format>image/svg+xml</dc:format>
        <dc:type
           rdf:resource="http://purl.org/dc/dcmitype/StillImage" />
        <dc:title></dc:title>
      </cc:Work>
    </rdf:RDF>
  </metadata>
  <g
     inkscape:label="Layer 1"
     inkscape:groupmode="layer"
     id="layer1"
     transform="translate(-1.228426,-0.47767755)">
    <rect
       inkscape:export-ydpi="200"
       inkscape:export-xdpi="200"
       ry="0"
       rx="0"
       y="0.85565394"
       x="22.206102"
       height="23.812498"
       width="96.496002"
       id="rect5649"
       style="opacity:1;fill:#2aa51c;fill-opacity:1;stroke:none;stroke-width:0.73255813;stroke-miterlimit:4;stroke-dasharray:none;stroke-opacity:1" />
    <text
       inkscape:export-ydpi="200"
       inkscape:export-xdpi="200"
       id="text5655"
       y="15.778858"
       x="48.879726"
       style="font-style:normal;font-variant:normal;font-weight:500;font-stretch:normal;font-size:10.33047962px;line-height:1.25;font-family:Poppins;-inkscape-font-specification:'Poppins Medium';letter-spacing:0px;word-spacing:0px;fill:#ffffff;fill-opacity:1;stroke:none;stroke-width:0.25826201"
       xml:space="preserve"><tspan
         style="font-style:normal;font-variant:normal;font-weight:500;font-stretch:normal;font-family:Poppins;-inkscape-font-specification:'Poppins Medium';fill:#ffffff;fill-opacity:1;stroke-width:0.25826201"
         y="15.778858"
         x="48.879726"
         id="tspan5653"
         sodipodi:role="line">Message Us</tspan></text>
    <path
       style="opacity:1;fill:#ffffff;fill-opacity:1;stroke:none;stroke-width:0.84626681;stroke-miterlimit:4;stroke-dasharray:none;stroke-opacity:1"
       d="m 37.442449,5.2464842 c -0.696728,-2.91e-4 -1.391941,0.07734 -1.886601,0.232653 -1.94552,0.6109168 -3.39337,1.8259158 -4.245497,3.5632878 -0.543323,1.107745 -0.693915,1.763253 -0.69141,3.010074 0.0022,1.187462 0.169463,1.994954 0.603936,2.91912 0.145647,0.309784 0.264578,0.622894 0.264578,0.695769 0,0.07289 -0.245371,0.866096 -0.545331,1.762842 -0.299961,0.896747 -0.521398,1.654292 -0.492426,1.68325 0.102456,0.102463 0.33242,0.04762 1.903216,-0.455255 0.873062,-0.279457 1.653977,-0.508169 1.735291,-0.508169 0.08133,0 0.371084,0.09827 0.644175,0.218662 0.764197,0.336925 1.7305,0.520438 2.731936,0.518666 1.085234,-0.0022 1.909538,-0.163258 2.727132,-0.533969 1.995809,-0.904937 3.419506,-2.607402 3.961689,-4.737058 0.185827,-0.729951 0.161836,-2.480801 -0.04417,-3.226545 C 43.44235,7.977293 41.745107,6.231145 39.336926,5.4804492 38.837313,5.3247072 38.139185,5.2467772 37.442449,5.2464842 Z m -0.01092,1.0863028 c 2.41572,-0.0044 4.695052,1.578041 5.471308,3.983989 0.315021,0.976382 0.357311,2.39378 0.09752,3.26022 -0.597058,1.991335 -2.195894,3.550116 -4.164608,4.060526 -0.327775,0.08498 -0.925989,0.140878 -1.478141,0.13819 -0.767135,-0.0037 -1.058824,-0.04915 -1.685872,-0.263706 -0.416973,-0.142659 -0.862199,-0.327571 -0.989649,-0.411075 -0.313917,-0.205688 -0.622301,-0.188385 -1.436166,0.08134 -0.379297,0.1257 -0.854522,0.228719 -0.854522,0.228719 l -0.291258,0.06952 0.255399,-0.728141 c 0,0 0.192091,-0.524841 0.268951,-0.785427 l 0.139948,-0.473621 -0.361671,-0.698398 c -0.474115,-0.915549 -0.661812,-1.676435 -0.664274,-2.696082 -0.0066,-2.699184 1.721578,-4.923956 4.345645,-5.595075 0.448064,-0.114594 0.900031,-0.170114 1.347397,-0.170993 z m -2.091706,2.588502 c -0.362661,0.0073 -0.818722,0.315806 -1.057008,0.774058 -0.22346,0.42974 -0.188949,1.390322 0.06776,1.893596 0.492506,0.965395 1.503774,2.119233 2.385144,2.721447 1.366638,0.933784 2.826802,1.202589 3.604831,0.663412 0.420759,-0.291588 0.596595,-0.636388 0.553645,-1.085432 -0.02762,-0.288745 -0.08234,-0.336808 -0.757876,-0.664723 -0.822186,-0.399112 -1.028108,-0.394087 -1.304085,0.03326 -0.314245,0.486573 -0.454647,0.510425 -1.108609,0.18848 -0.63674,-0.313462 -1.662907,-1.31396 -1.765026,-1.720852 -0.04161,-0.165903 0.01055,-0.33056 0.183674,-0.580326 0.132908,-0.191783 0.241407,-0.41462 0.241407,-0.49548 0,-0.241297 -0.557857,-1.49636 -0.723774,-1.628147 -0.0886,-0.0704 -0.199227,-0.101621 -0.320114,-0.09927 z"
       id="rect4576"
       inkscape:connector-curvature="0"
       inkscape:export-xdpi="200"
       inkscape:export-ydpi="200" />
  </g>
</svg>
