<?xml version="1.0" encoding="UTF-8" standalone="no"?>
<!-- Created with Inkscape (http://www.inkscape.org/) -->

<svg
   xmlns:dc="http://purl.org/dc/elements/1.1/"
   xmlns:cc="http://creativecommons.org/ns#"
   xmlns:rdf="http://www.w3.org/1999/02/22-rdf-syntax-ns#"
   xmlns:svg="http://www.w3.org/2000/svg"
   xmlns="http://www.w3.org/2000/svg"
   xmlns:sodipodi="http://sodipodi.sourceforge.net/DTD/sodipodi-0.dtd"
   xmlns:inkscape="http://www.inkscape.org/namespaces/inkscape"
   width="127.97356mm"
   height="65.923988mm"
   viewBox="0 0 127.97356 65.923989"
   version="1.1"
   id="svg958"
   sodipodi:docname="tileset-1.svg"
   inkscape:version="0.92.4 (5da689c313, 2019-01-14)">
  <defs
     id="defs952">
    <filter
       style="color-interpolation-filters:sRGB"
       inkscape:label="Drop Shadow"
       id="filter2310">
      <feFlood
         flood-opacity="0.12549"
         flood-color="rgb(0,0,0)"
         result="flood"
         id="feFlood2300" />
      <feComposite
         in="flood"
         in2="SourceGraphic"
         operator="in"
         result="composite1"
         id="feComposite2302" />
      <feGaussianBlur
         in="composite1"
         stdDeviation="2"
         result="blur"
         id="feGaussianBlur2304" />
      <feOffset
         dx="-0.1"
         dy="0.1"
         result="offset"
         id="feOffset2306" />
      <feComposite
         in="SourceGraphic"
         in2="offset"
         operator="over"
         result="composite2"
         id="feComposite2308" />
    </filter>
    <filter
       style="color-interpolation-filters:sRGB"
       inkscape:label="Drop Shadow"
       id="filter1577">
      <feFlood
         flood-opacity="0.12549"
         flood-color="rgb(0,0,0)"
         result="flood"
         id="feFlood1567" />
      <feComposite
         in="flood"
         in2="SourceGraphic"
         operator="in"
         result="composite1"
         id="feComposite1569" />
      <feGaussianBlur
         in="composite1"
         stdDeviation="2"
         result="blur"
         id="feGaussianBlur1571" />
      <feOffset
         dx="-0.1"
         dy="0.1"
         result="offset"
         id="feOffset1573" />
      <feComposite
         in="SourceGraphic"
         in2="offset"
         operator="over"
         result="composite2"
         id="feComposite1575" />
    </filter>
  </defs>
  <sodipodi:namedview
     id="base"
     pagecolor="#ffffff"
     bordercolor="#666666"
     borderopacity="1.0"
     inkscape:pageopacity="0.0"
     inkscape:pageshadow="2"
     inkscape:zoom="1.979899"
     inkscape:cx="138.60826"
     inkscape:cy="95.015627"
     inkscape:document-units="mm"
     inkscape:current-layer="layer1"
     showgrid="false"
     inkscape:window-width="1920"
     inkscape:window-height="1017"
     inkscape:window-x="-8"
     inkscape:window-y="-8"
     inkscape:window-maximized="1" />
  <metadata
     id="metadata955">
    <rdf:RDF>
      <cc:Work
         rdf:about="">
        <dc:format>image/svg+xml</dc:format>
        <dc:type
           rdf:resource="http://purl.org/dc/dcmitype/StillImage" />
        <dc:title></dc:title>
      </cc:Work>
    </rdf:RDF>
  </metadata>
  <g
     inkscape:label="Layer 1"
     inkscape:groupmode="layer"
     id="layer1"
     transform="translate(-92.257972,47.471755)">
    <g
       transform="translate(68.892179,-219.5943)"
       id="g1141"
       inkscape:export-xdpi="200"
       inkscape:export-ydpi="200">
      <rect
         y="177.61621"
         x="92.238586"
         height="54.936657"
         width="53.72797"
         id="rect878"
         style="opacity:1;fill:#ffffff;fill-opacity:1;stroke:none;stroke-width:3.90182328;stroke-linecap:round;stroke-linejoin:round;stroke-miterlimit:4;stroke-dasharray:none;stroke-opacity:0.9848485;paint-order:fill markers stroke;filter:url(#filter2310)" />
      <rect
         style="opacity:1;fill:#3c74ce;fill-opacity:1;stroke:none;stroke-width:0.72249925;stroke-linecap:round;stroke-linejoin:round;stroke-miterlimit:4;stroke-dasharray:none;stroke-opacity:0.9848485;paint-order:fill markers stroke"
         id="rect880"
         width="53.72797"
         height="1.8836571"
         x="92.238586"
         y="177.61621" />
      <text
         xml:space="preserve"
         style="font-style:normal;font-variant:normal;font-weight:normal;font-stretch:normal;font-size:3.21990728px;line-height:1.25;font-family:Poppins;-inkscape-font-specification:Poppins;text-align:center;letter-spacing:0px;word-spacing:0px;text-anchor:middle;fill:#000000;fill-opacity:1;stroke:none;stroke-width:0.08049768"
         x="119.05018"
         y="202.59135"
         id="text888"><tspan
           sodipodi:role="line"
           x="119.05018"
           y="202.59135"
           style="font-style:normal;font-variant:normal;font-weight:normal;font-stretch:normal;font-family:Poppins;-inkscape-font-specification:Poppins;text-align:center;text-anchor:middle;stroke-width:0.08049768"
           id="tspan886">No Ongoing Expenditure</tspan><tspan
           id="tspan911"
           sodipodi:role="line"
           x="119.05018"
           y="206.61624"
           style="font-style:normal;font-variant:normal;font-weight:normal;font-stretch:normal;font-family:Poppins;-inkscape-font-specification:Poppins;text-align:center;text-anchor:middle;stroke-width:0.08049768">in Software Development</tspan></text>
      <text
         xml:space="preserve"
         style="font-style:normal;font-variant:normal;font-weight:normal;font-stretch:normal;font-size:2.84395742px;line-height:1.25;font-family:Poppins;-inkscape-font-specification:Poppins;text-align:center;text-anchor:middle;opacity:1;fill:#8e8f9f;fill-opacity:1;stroke:none;stroke-width:0.71098936;stroke-linecap:round;stroke-linejoin:round;stroke-miterlimit:4;stroke-dasharray:none;stroke-opacity:0.9848485;paint-order:fill markers stroke"
         x="119.14748"
         y="214.41179"
         id="text894"><tspan
           sodipodi:role="line"
           x="119.14748"
           y="214.41179"
           style="fill:#8e8f9f;fill-opacity:1;stroke-width:0.71098936"
           id="tspan892">All future upgrades included</tspan><tspan
           id="tspan915"
           sodipodi:role="line"
           x="119.14748"
           y="217.96674"
           style="fill:#8e8f9f;fill-opacity:1;stroke-width:0.71098936">within the same pricing</tspan></text>
      <path
         inkscape:connector-curvature="0"
         id="path907"
         d="m 115.4105,196.35609 c -0.0581,-0.0581 -0.0624,-0.14408 -0.0106,-0.20812 l 0.0372,-0.046 0.73705,-0.01 0.73705,-0.01 0.0143,-0.24348 c 0.008,-0.13392 0.0128,-0.2654 0.011,-0.29218 -0.002,-0.0268 -0.004,-0.16421 -0.004,-0.3054 -0.002,-0.28031 0.009,-0.31188 0.13278,-0.40436 0.0525,-0.0392 0.0753,-0.0401 0.94695,-0.0401 0.87169,0 0.89445,6.6e-4 0.94695,0.0401 0.12387,0.0925 0.13423,0.12405 0.13277,0.40436 -5.9e-4,0.14119 -0.003,0.27861 -0.004,0.3054 -0.002,0.0268 0.003,0.15826 0.0111,0.29218 l 0.0143,0.24348 h 0.14609 0.14609 l 0.0143,-0.24348 c 0.008,-0.13392 0.0129,-0.2654 0.0113,-0.29218 -0.002,-0.0268 -0.003,-0.16265 -0.003,-0.30192 3e-4,-0.13926 1.4e-4,-0.27952 -2.9e-4,-0.31165 -3e-4,-0.0322 -3e-4,-0.1702 2.2e-4,-0.30679 0.002,-0.29426 0.002,-0.30203 -0.002,-0.63166 -0.003,-0.28047 0.008,-0.3117 0.13202,-0.40436 0.0525,-0.0393 0.0752,-0.0402 0.94695,-0.0402 0.87169,0 0.89444,6.6e-4 0.94693,0.0402 0.12411,0.0927 0.13431,0.12389 0.13204,0.40436 -0.003,0.30454 -0.003,0.31193 -0.003,0.63653 0,0.13927 0,0.27952 0,0.31166 0,0.0322 3e-4,0.1702 6.6e-4,0.30678 3e-4,0.1366 -6e-4,0.27026 -0.003,0.29705 -0.002,0.0268 0.003,0.15826 0.0113,0.29218 l 0.0143,0.24348 h 0.14609 0.14608 l 0.0139,-0.24348 c 0.008,-0.13392 0.0122,-0.2654 0.0103,-0.29218 -0.002,-0.0268 -0.003,-0.16045 -0.002,-0.29705 6.6e-4,-0.13658 0.002,-0.27464 0.002,-0.30678 0,-0.0322 0,-0.17239 0,-0.31166 0,-0.13927 0,-0.27952 0,-0.31165 0,-0.0322 0,-0.17239 0,-0.31165 0,-0.13928 0,-0.27953 0,-0.31166 0,-0.0322 0,-0.17239 0,-0.31165 0,-0.32462 -2e-5,-0.33201 -0.003,-0.63654 -0.003,-0.28047 0.008,-0.3117 0.13203,-0.40436 0.0525,-0.0392 0.0752,-0.0402 0.94694,-0.0402 0.8717,0 0.89445,6.6e-4 0.94694,0.0402 0.12412,0.0927 0.13431,0.12389 0.13203,0.40436 -0.003,0.30453 -0.003,0.31192 -0.003,0.63654 0,0.13926 0,0.27951 0,0.31165 0,0.0322 0,0.17238 0,0.31166 0,0.13926 0,0.27951 0,0.31165 0,0.0322 0,0.17238 0,0.31165 0,0.13927 0,0.27952 0,0.31166 0,0.0322 3e-4,0.1702 6.6e-4,0.30678 3e-4,0.1366 -8e-5,0.27026 -0.002,0.29705 -6.6e-4,0.0268 6.6e-4,0.20991 0.004,0.40695 0.007,0.3544 0.006,0.35873 -0.0395,0.40417 l -0.0459,0.0459 h -4.26755 -4.26756 z m 3.37065,-0.47809 v -0.1461 h -0.76939 -0.76941 l -0.006,0.12456 c -0.003,0.0685 -0.002,0.13654 0.004,0.15119 0.009,0.022 0.14281,0.0257 0.77527,0.0215 l 0.76505,-0.005 z m 2.49325,0 v -0.1461 h -0.7694 -0.7694 l -0.006,0.12456 c -0.003,0.0685 -0.002,0.13654 0.004,0.15119 0.009,0.022 0.1428,0.0257 0.77526,0.0215 l 0.76506,-0.005 z m 2.49325,0 v -0.1461 h -0.76941 -0.7694 l -0.006,0.12456 c -0.003,0.0685 -0.002,0.13654 0.004,0.15119 0.009,0.022 0.14281,0.0257 0.77527,0.0215 l 0.76506,-0.005 z m -4.9865,-0.62331 v -0.1461 h -0.76939 -0.76941 l -0.006,0.12456 c -0.003,0.0685 -0.002,0.13654 0.004,0.15118 0.009,0.022 0.14281,0.0257 0.77527,0.0215 l 0.76505,-0.005 z m 2.49325,0 v -0.1461 h -0.7694 -0.7694 l -0.006,0.12456 c -0.003,0.0685 -0.002,0.13654 0.004,0.15118 0.009,0.022 0.1428,0.0257 0.77526,0.0215 l 0.76506,-0.005 z m 2.49325,0 v -0.1461 h -0.76941 -0.7694 l -0.006,0.12456 c -0.003,0.0685 -0.002,0.13654 0.004,0.15118 0.009,0.022 0.14281,0.0257 0.77527,0.0215 l 0.76506,-0.005 z m -2.49325,-0.62331 v -0.1461 h -0.7694 -0.7694 l -0.006,0.12456 c -0.003,0.0685 -0.002,0.13654 0.004,0.15118 0.009,0.022 0.1428,0.0257 0.77526,0.0215 l 0.76506,-0.005 z m 2.49325,0 v -0.1461 h -0.76941 -0.7694 l -0.006,0.12456 c -0.003,0.0685 -0.002,0.13654 0.004,0.15118 0.009,0.022 0.14281,0.0257 0.77527,0.0215 l 0.76506,-0.005 z m -2.49325,-0.62332 v -0.14609 h -0.7694 -0.7694 l -0.006,0.12457 c -0.003,0.0685 -0.002,0.13653 0.004,0.15118 0.009,0.022 0.1428,0.0257 0.77526,0.0215 l 0.76506,-0.005 z m 2.49325,0 v -0.14609 h -0.76941 -0.7694 l -0.006,0.12457 c -0.003,0.0685 -0.002,0.13653 0.004,0.15118 0.009,0.022 0.14281,0.0257 0.77527,0.0215 l 0.76506,-0.005 z m 0,-0.62331 v -0.14609 h -0.76941 -0.7694 l -0.006,0.12456 c -0.003,0.0685 -0.002,0.13654 0.004,0.15119 0.009,0.022 0.14281,0.0257 0.77527,0.0215 l 0.76506,-0.005 z m 0,-0.62331 v -0.14608 h -0.76941 -0.7694 l -0.006,0.12455 c -0.003,0.0685 -0.002,0.13654 0.004,0.15119 0.009,0.022 0.14281,0.0257 0.77527,0.0215 l 0.76506,-0.005 z m -9.60378,3.49727 c -0.0263,-0.0263 -0.0478,-0.0699 -0.0478,-0.0968 0,-0.0443 0.13091,-0.32639 0.82774,-1.78379 0.12038,-0.25176 0.36063,-0.75509 0.53391,-1.11851 l 0.31503,-0.66076 -0.12361,-0.11838 c -0.50014,-0.47896 -0.56436,-1.18941 -0.1589,-1.75762 0.41866,-0.58671 1.28012,-0.70549 1.87285,-0.25826 0.29642,0.22364 0.51035,0.64849 0.51146,1.01566 3e-4,0.0942 0.007,0.11588 0.0441,0.1394 0.0598,0.038 1.23637,0.51845 1.26959,0.51845 0.0174,0 0.0859,-0.17818 0.19901,-0.51757 l 0.17248,-0.51757 -0.0584,-0.0408 c -0.11407,-0.0796 -0.35318,-0.33792 -0.41484,-0.44814 -0.43242,-0.77309 -0.026,-1.72574 0.82958,-1.94456 0.18117,-0.0463 0.45003,-0.0492 0.62611,-0.007 0.40299,0.0975 0.75526,0.398 0.91764,0.78288 0.0286,0.068 0.06,0.131 0.0694,0.14009 0.009,0.009 0.22962,-0.007 0.4893,-0.0355 0.40368,-0.0445 0.47751,-0.0575 0.51006,-0.0908 0.0555,-0.0566 1.01377,-1.3217 1.01416,-1.33895 5.9e-4,-0.0215 -0.0701,-0.0187 -0.45056,0.0179 -0.32311,0.0311 -0.34678,0.0311 -0.39413,4e-5 -0.0884,-0.0579 -0.0922,-0.19991 -0.007,-0.25478 0.0286,-0.0185 0.25168,-0.0495 0.65327,-0.0909 l 0.60975,-0.0629 0.0525,0.0392 0.0525,0.0392 0.005,0.73388 0.005,0.73385 -0.048,0.0481 c -0.0635,0.0635 -0.15292,0.0636 -0.21627,2.2e-4 l -0.0478,-0.0478 v -0.42942 c 0,-0.25935 -0.008,-0.42941 -0.0186,-0.42941 -0.0102,0 -0.24426,0.29899 -0.52011,0.6644 -0.27585,0.36542 -0.51949,0.67609 -0.54143,0.69038 -0.0239,0.0157 -0.23865,0.0464 -0.53659,0.0771 -0.27319,0.0281 -0.51506,0.0585 -0.53751,0.0675 -0.0349,0.0139 -0.0426,0.0387 -0.0533,0.16915 -0.0203,0.24892 -0.10543,0.46336 -0.27098,0.68262 -0.15457,0.20474 -0.4408,0.39546 -0.69652,0.46411 -0.16818,0.0451 -0.4178,0.0552 -0.57959,0.0234 -0.10178,-0.02 -0.146,-0.0218 -0.15808,-0.007 -0.009,0.0117 -0.10201,0.27993 -0.20619,0.59597 -0.15733,0.47723 -0.1991,0.58369 -0.24641,0.62817 -0.0314,0.0294 -0.0697,0.0535 -0.0852,0.0535 -0.0156,0 -0.34878,-0.13147 -0.74056,-0.29217 -0.39179,-0.16069 -0.7207,-0.29217 -0.73091,-0.29217 -0.0102,0 -0.0532,0.0679 -0.0955,0.15095 -0.18879,0.37066 -0.49082,0.61227 -0.88291,0.70627 -0.20616,0.0494 -0.41496,0.0493 -0.60865,-1.5e-4 -0.0838,-0.0214 -0.16267,-0.0389 -0.17533,-0.0389 -0.0228,0 -0.14275,0.2443 -0.99448,2.02576 -0.2433,0.50887 -0.50175,1.04939 -0.57433,1.20115 -0.0769,0.16076 -0.14842,0.28474 -0.17142,0.29705 -0.0646,0.0346 -0.13808,0.0242 -0.189,-0.0267 z m 2.48041,-3.89179 c 0.0111,-0.0134 0.0232,-0.0548 0.0268,-0.092 0.006,-0.0629 0.0132,-0.0694 0.10386,-0.0945 0.22828,-0.0632 0.34175,-0.25055 0.28324,-0.46779 -0.0371,-0.13768 -0.14105,-0.21967 -0.39824,-0.314 -0.12188,-0.0447 -0.2401,-0.10098 -0.2627,-0.12503 -0.0595,-0.0634 -0.0526,-0.13524 0.0188,-0.19532 0.0967,-0.0814 0.28091,-0.0639 0.42087,0.0399 0.16231,0.12043 0.28032,-0.0206 0.13329,-0.15929 -0.0372,-0.0352 -0.11829,-0.0806 -0.18017,-0.1012 -0.10511,-0.0349 -0.11294,-0.0417 -0.11898,-0.10397 -0.008,-0.0824 -0.034,-0.11546 -0.0909,-0.11546 -0.0571,0 -0.0829,0.0331 -0.0909,0.11646 -0.006,0.0615 -0.0153,0.0709 -0.10385,0.10344 -0.2354,0.0866 -0.32393,0.31269 -0.20143,0.51444 0.0493,0.0813 0.13132,0.13029 0.37084,0.22157 0.23408,0.0892 0.28834,0.13293 0.28834,0.23228 0,0.10368 -0.0672,0.15986 -0.20488,0.17128 -0.13109,0.0109 -0.24851,-0.0294 -0.362,-0.12425 -0.0438,-0.0366 -0.0919,-0.0665 -0.10698,-0.0665 -0.0379,0 -0.10529,0.0709 -0.10529,0.11071 0,0.0616 0.18124,0.21266 0.30412,0.25349 0.1074,0.0358 0.11508,0.0423 0.12113,0.1047 0.008,0.0824 0.034,0.11546 0.0909,0.11546 0.0242,0 0.053,-0.011 0.0641,-0.0245 z m 3.79415,-1.60148 c 0.007,-0.0259 0.007,-0.0555 1.4e-4,-0.0658 -0.0229,-0.0371 0.0113,-0.0757 0.0907,-0.10183 0.30158,-0.0995 0.35639,-0.50084 0.0909,-0.66514 -0.0472,-0.0292 -0.18554,-0.0792 -0.30733,-0.11107 -0.24646,-0.0645 -0.29475,-0.095 -0.29475,-0.18602 0,-0.099 0.0733,-0.15291 0.21976,-0.16175 0.10164,-0.006 0.13615,6.6e-4 0.21466,0.0429 0.10178,0.0546 0.16798,0.0634 0.20447,0.0269 0.0866,-0.0866 -0.0619,-0.22847 -0.27824,-0.26604 -0.0642,-0.0111 -0.0806,-0.0234 -0.0948,-0.0714 -0.0283,-0.0954 -0.0436,-0.11606 -0.0914,-0.1231 -0.0591,-0.009 -0.0965,0.0429 -0.0965,0.13314 0,0.0627 -0.008,0.0729 -0.0682,0.0949 -0.21433,0.0775 -0.30077,0.28981 -0.19965,0.49035 0.0553,0.10974 0.15041,0.16373 0.39981,0.22706 0.21141,0.0537 0.28664,0.0874 0.31545,0.1412 0.0558,0.10411 -0.008,0.2157 -0.14402,0.2539 -0.12043,0.0337 -0.23762,0.0121 -0.37162,-0.0686 -0.0615,-0.037 -0.12101,-0.0673 -0.13226,-0.0673 -0.0369,0 -0.0917,0.0636 -0.0917,0.10634 0,0.0847 0.22621,0.24229 0.35061,0.24416 0.0687,6.5e-4 0.0863,0.0182 0.11333,0.11077 0.0247,0.0845 0.0644,0.10998 0.12506,0.0801 0.0186,-0.009 0.0392,-0.0378 0.0457,-0.0636 z"
         style="fill:#727272;fill-opacity:1;stroke-width:0.01947846" />
    </g>
    <g
       transform="translate(68.892179,-219.5943)"
       id="g1130"
       inkscape:export-xdpi="200"
       inkscape:export-ydpi="200">
      <rect
         style="opacity:1;fill:#ffffff;fill-opacity:1;stroke:none;stroke-width:3.90182328;stroke-linecap:round;stroke-linejoin:round;stroke-miterlimit:4;stroke-dasharray:none;stroke-opacity:0.9848485;paint-order:fill markers stroke;filter:url(#filter2310)"
         id="rect1986"
         width="53.72797"
         height="54.936657"
         x="28.73859"
         y="177.61621" />
      <rect
         y="177.61621"
         x="28.73859"
         height="1.8836571"
         width="53.72797"
         id="rect1984"
         style="opacity:1;fill:#3c74ce;fill-opacity:1;stroke:none;stroke-width:0.72249925;stroke-linecap:round;stroke-linejoin:round;stroke-miterlimit:4;stroke-dasharray:none;stroke-opacity:0.9848485;paint-order:fill markers stroke" />
      <path
         inkscape:connector-curvature="0"
         id="path856"
         d="m 52.52038,197.58162 c -0.06236,-0.0167 -0.150102,-0.0674 -0.194991,-0.11265 -0.117272,-0.1182 -1.708875,-2.93467 -1.7324,-3.06563 -0.02206,-0.12284 0.05548,-0.33362 0.155289,-0.42207 0.03197,-0.0283 0.272944,-0.17346 0.535484,-0.32249 0.42732,-0.24257 0.493206,-0.27095 0.628683,-0.27085 0.184195,1.5e-4 0.313905,0.0722 0.428773,0.23827 0.08109,0.11722 0.164315,0.15345 0.204208,0.0889 0.01112,-0.018 0.150279,-0.12948 0.309256,-0.24778 0.782761,-0.58245 1.196134,-0.64853 2.188775,-0.34994 0.623344,0.18751 0.953845,0.22126 1.505103,0.15369 0.499152,-0.0612 0.875945,0.004 1.123266,0.19201 0.07545,0.0576 0.142703,0.10472 0.14944,0.10472 0.0067,0 0.101958,-0.11488 0.211602,-0.2553 0.575473,-0.73697 1.001317,-1.03147 1.441429,-0.99685 0.311261,0.0245 0.530241,0.17956 0.572623,0.40548 0.09271,0.49418 -0.626125,1.66884 -1.637948,2.67658 -0.417139,0.41546 -0.747564,0.67435 -1.066718,0.83579 -0.356533,0.18034 -0.39716,0.18416 -1.958345,0.18416 h -1.422033 l 0.02013,0.13426 c 0.02325,0.15505 -0.04785,0.34874 -0.166739,0.4542 -0.110841,0.0983 -0.990452,0.57477 -1.091521,0.59122 -0.0495,0.008 -0.141014,8.7e-4 -0.203371,-0.0157 z m 0.533537,-0.76669 c 0.226547,-0.13051 0.299802,-0.18778 0.299802,-0.23439 0,-0.0975 -1.428923,-2.59308 -1.483533,-2.59094 -0.02552,8.7e-4 -0.181385,0.0795 -0.346377,0.17431 -0.22548,0.12965 -0.299985,0.18767 -0.299985,0.23364 0,0.0953 1.429339,2.59009 1.483963,2.59009 0.02548,0 0.181239,-0.0777 0.34613,-0.17271 z m -0.355473,-0.11994 c -0.09155,-0.0562 -0.409672,-0.58044 -0.409672,-0.67516 0,-0.16504 0.189122,-0.32089 0.335271,-0.2763 0.108861,0.0332 0.166827,0.0978 0.329465,0.36706 0.188658,0.31232 0.201144,0.42543 0.0608,0.55082 -0.11078,0.099 -0.194739,0.10791 -0.31587,0.0336 z m 4.360091,-0.93947 c 0.702161,-0.33176 1.857418,-1.60905 2.311796,-2.556 0.06811,-0.14195 0.114999,-0.2724 0.104193,-0.28988 -0.01081,-0.0175 -0.05314,-0.0318 -0.09407,-0.0318 -0.197613,0 -0.492043,0.251 -0.897312,0.76496 -0.687177,0.87147 -0.960052,1.10385 -1.499603,1.27703 -0.190821,0.0613 -0.284135,0.0686 -1.022222,0.0807 -0.962275,0.0158 -0.919491,0.0295 -0.893942,-0.28625 0.009,-0.11086 0.0215,-0.21844 0.02784,-0.23906 0.0088,-0.0287 0.19023,-0.0375 0.774276,-0.0375 0.868486,0 1.007493,-0.0249 1.306554,-0.23389 0.212085,-0.14822 0.241059,-0.19477 0.170086,-0.27319 -0.100041,-0.11054 -0.238738,-0.13367 -0.631005,-0.10522 -0.854742,0.062 -1.156169,0.0297 -1.966478,-0.21101 -0.340291,-0.10106 -0.401352,-0.11038 -0.660035,-0.10074 -0.263949,0.01 -0.29993,0.0189 -0.485987,0.123 -0.207074,0.1158 -0.800102,0.56177 -0.838681,0.63071 -0.02053,0.0367 0.730818,1.40712 0.837598,1.52778 0.04316,0.0488 0.1607,0.0525 1.654229,0.0525 l 1.607771,-3e-5 z m -4.117727,-3.06382 c -0.43366,-0.51076 -0.770147,-1.23268 -0.912976,-1.95875 -0.07987,-0.40604 -0.07243,-1.21868 0.01486,-1.62304 0.123767,-0.57331 0.318284,-1.05235 0.608339,-1.49819 1.211373,-1.86196 3.610957,-2.51806 5.582143,-1.52627 0.81958,0.41236 1.587173,1.20035 1.971927,2.02431 0.546732,1.17084 0.547829,2.51785 0.003,3.68088 -0.06383,0.13625 -0.135815,0.25531 -0.159973,0.26458 -0.02416,0.009 -0.09586,-0.009 -0.159327,-0.0416 -0.06348,-0.0321 -0.159121,-0.0678 -0.212554,-0.0794 -0.05343,-0.0115 -0.103936,-0.032 -0.112228,-0.0454 -0.0083,-0.0134 0.0531,-0.16711 0.136427,-0.34155 0.08595,-0.17991 0.191974,-0.47017 0.245033,-0.67077 0.08902,-0.33655 0.09353,-0.38109 0.09353,-0.92358 0,-0.54444 -0.0043,-0.58608 -0.09513,-0.92995 -0.443909,-1.67988 -1.931912,-2.83431 -3.653884,-2.83476 -1.030356,-2.8e-4 -1.919094,0.36993 -2.655157,1.10599 -0.575135,0.57513 -0.928369,1.2425 -1.061388,2.0053 -0.05813,0.33332 -0.05732,0.97798 0.0017,1.31696 0.110872,0.63736 0.449351,1.34298 0.863814,1.80075 0.07688,0.0849 0.139775,0.16592 0.139757,0.17999 -2.5e-5,0.0197 -0.261603,0.15238 -0.481846,0.24443 -0.01164,0.004 -0.08185,-0.0626 -0.156021,-0.14999 z m 3.133776,-0.53982 c -0.0198,-0.0198 -0.036,-0.0859 -0.036,-0.14679 0,-0.12202 -0.03294,-0.14719 -0.192645,-0.14719 -0.172114,0 -0.56251,-0.11707 -0.713505,-0.21397 -0.220175,-0.14128 -0.371999,-0.39387 -0.385299,-0.64099 -0.0091,-0.16961 -0.01714,-0.165 0.286097,-0.165 h 0.284583 l 0.04654,0.1114 c 0.0256,0.0613 0.06966,0.13695 0.0979,0.16819 0.08047,0.089 0.266597,0.17206 0.428386,0.19122 l 0.147941,0.0175 v -0.65957 -0.65956 l -0.328654,-0.12596 c -0.680598,-0.26088 -0.936322,-0.54393 -0.93477,-1.03465 0.0016,-0.51888 0.377578,-0.87767 1.038435,-0.99108 0.201042,-0.0345 0.210341,-0.0398 0.218215,-0.1242 0.02119,-0.22704 0.01662,-0.22315 0.261762,-0.22315 0.245099,0 0.240529,-0.004 0.26176,0.22284 0.0079,0.0841 0.01839,0.09 0.248215,0.13979 0.301027,0.0652 0.484992,0.14407 0.627482,0.26918 0.139709,0.12267 0.260114,0.35655 0.267113,0.51886 l 0.0053,0.12426 -0.276618,0.009 -0.276618,0.009 -0.047,-0.11251 c -0.02586,-0.0619 -0.07012,-0.13853 -0.09836,-0.17034 -0.06804,-0.0766 -0.270594,-0.16788 -0.374471,-0.16869 l -0.08314,-5.8e-4 0.0082,0.58743 0.0082,0.58743 0.317384,0.12579 c 0.736751,0.29198 0.93401,0.51392 0.938791,1.05626 0.0022,0.2491 -0.0059,0.28877 -0.09567,0.47121 -0.159934,0.32487 -0.47268,0.54241 -0.928866,0.64608 l -0.231634,0.0526 -0.0097,0.11861 c -0.0053,0.0653 -0.02388,0.13565 -0.04117,0.15648 -0.04073,0.0491 -0.389378,0.0506 -0.43807,0.002 z m 0.773961,-0.92647 c 0.302232,-0.13702 0.423586,-0.36568 0.327986,-0.618 -0.04953,-0.13072 -0.146812,-0.2196 -0.342985,-0.31336 -0.300294,-0.14352 -0.284986,-0.1679 -0.284986,0.4539 v 0.53997 l 0.0825,-5.7e-4 c 0.04537,-2.9e-4 0.143243,-0.0282 0.217489,-0.0619 z m -0.809959,-2.38237 v -0.49497 l -0.0975,5.7e-4 c -0.114783,8.6e-4 -0.339625,0.0969 -0.434108,0.18561 -0.03664,0.0344 -0.08158,0.10785 -0.09986,0.16323 -0.07144,0.21646 0.05301,0.41642 0.345182,0.55465 0.300113,0.14197 0.286277,0.16175 0.286277,-0.40917 z"
         style="fill:#727272;fill-opacity:1;stroke:none;stroke-width:0.02999852" />
      <text
         id="text860"
         y="202.59135"
         x="55.550179"
         style="font-style:normal;font-variant:normal;font-weight:normal;font-stretch:normal;font-size:3.21990728px;line-height:1.25;font-family:Poppins;-inkscape-font-specification:Poppins;text-align:center;letter-spacing:0px;word-spacing:0px;text-anchor:middle;fill:#000000;fill-opacity:1;stroke:none;stroke-width:0.08049768"
         xml:space="preserve"><tspan
           style="font-style:normal;font-variant:normal;font-weight:normal;font-stretch:normal;font-family:Poppins;-inkscape-font-specification:Poppins;text-align:center;text-anchor:middle;stroke-width:0.08049768"
           y="202.59135"
           x="55.550179"
           id="tspan858"
           sodipodi:role="line">No Capital Investment</tspan><tspan
           id="tspan862"
           style="font-style:normal;font-variant:normal;font-weight:normal;font-stretch:normal;font-family:Poppins;-inkscape-font-specification:Poppins;text-align:center;text-anchor:middle;stroke-width:0.08049768"
           y="206.61624"
           x="55.550179"
           sodipodi:role="line">in Software</tspan></text>
      <text
         id="text870"
         y="214.41179"
         x="55.64748"
         style="font-style:normal;font-variant:normal;font-weight:normal;font-stretch:normal;font-size:2.84395742px;line-height:1.25;font-family:Poppins;-inkscape-font-specification:Poppins;text-align:center;text-anchor:middle;opacity:1;fill:#8e8f9f;fill-opacity:1;stroke:none;stroke-width:0.71098936;stroke-linecap:round;stroke-linejoin:round;stroke-miterlimit:4;stroke-dasharray:none;stroke-opacity:0.9848485;paint-order:fill markers stroke"
         xml:space="preserve"><tspan
           style="fill:#8e8f9f;fill-opacity:1;stroke-width:0.71098936"
           y="214.41179"
           x="55.997421"
           id="tspan868"
           sodipodi:role="line">Save tens of </tspan><tspan
           id="tspan872"
           style="fill:#8e8f9f;fill-opacity:1;stroke-width:0.71098936"
           y="217.96674"
           x="55.64748"
           sodipodi:role="line">thousands of dollars</tspan></text>
    </g>
  </g>
</svg>
