<?xml version="1.0" encoding="UTF-8" standalone="no"?>
<!-- Created with Inkscape (http://www.inkscape.org/) -->

<svg
   xmlns:dc="http://purl.org/dc/elements/1.1/"
   xmlns:cc="http://creativecommons.org/ns#"
   xmlns:rdf="http://www.w3.org/1999/02/22-rdf-syntax-ns#"
   xmlns:svg="http://www.w3.org/2000/svg"
   xmlns="http://www.w3.org/2000/svg"
   xmlns:sodipodi="http://sodipodi.sourceforge.net/DTD/sodipodi-0.dtd"
   xmlns:inkscape="http://www.inkscape.org/namespaces/inkscape"
   width="127.97356mm"
   height="65.923988mm"
   viewBox="0 0 127.97356 65.923989"
   version="1.1"
   id="svg958"
   sodipodi:docname="tileset-3.svg"
   inkscape:version="0.92.4 (5da689c313, 2019-01-14)">
  <defs
     id="defs952">
    <filter
       style="color-interpolation-filters:sRGB"
       inkscape:label="Drop Shadow"
       id="filter2310">
      <feFlood
         flood-opacity="0.12549"
         flood-color="rgb(0,0,0)"
         result="flood"
         id="feFlood2300" />
      <feComposite
         in="flood"
         in2="SourceGraphic"
         operator="in"
         result="composite1"
         id="feComposite2302" />
      <feGaussianBlur
         in="composite1"
         stdDeviation="2"
         result="blur"
         id="feGaussianBlur2304" />
      <feOffset
         dx="-0.1"
         dy="0.1"
         result="offset"
         id="feOffset2306" />
      <feComposite
         in="SourceGraphic"
         in2="offset"
         operator="over"
         result="composite2"
         id="feComposite2308" />
    </filter>
    <filter
       style="color-interpolation-filters:sRGB"
       inkscape:label="Drop Shadow"
       id="filter1577">
      <feFlood
         flood-opacity="0.12549"
         flood-color="rgb(0,0,0)"
         result="flood"
         id="feFlood1567" />
      <feComposite
         in="flood"
         in2="SourceGraphic"
         operator="in"
         result="composite1"
         id="feComposite1569" />
      <feGaussianBlur
         in="composite1"
         stdDeviation="2"
         result="blur"
         id="feGaussianBlur1571" />
      <feOffset
         dx="-0.1"
         dy="0.1"
         result="offset"
         id="feOffset1573" />
      <feComposite
         in="SourceGraphic"
         in2="offset"
         operator="over"
         result="composite2"
         id="feComposite1575" />
    </filter>
    <filter
       style="color-interpolation-filters:sRGB"
       inkscape:label="Drop Shadow"
       id="filter2310-0">
      <feFlood
         flood-opacity="0.12549"
         flood-color="rgb(0,0,0)"
         result="flood"
         id="feFlood2300-8" />
      <feComposite
         in="flood"
         in2="SourceGraphic"
         operator="in"
         result="composite1"
         id="feComposite2302-5" />
      <feGaussianBlur
         in="composite1"
         stdDeviation="2"
         result="blur"
         id="feGaussianBlur2304-8" />
      <feOffset
         dx="-0.1"
         dy="0.1"
         result="offset"
         id="feOffset2306-7" />
      <feComposite
         in="SourceGraphic"
         in2="offset"
         operator="over"
         result="composite2"
         id="feComposite2308-0" />
    </filter>
    <filter
       style="color-interpolation-filters:sRGB"
       inkscape:label="Drop Shadow"
       id="filter1691">
      <feFlood
         flood-opacity="0.12549"
         flood-color="rgb(0,0,0)"
         result="flood"
         id="feFlood1681" />
      <feComposite
         in="flood"
         in2="SourceGraphic"
         operator="in"
         result="composite1"
         id="feComposite1683" />
      <feGaussianBlur
         in="composite1"
         stdDeviation="2"
         result="blur"
         id="feGaussianBlur1685" />
      <feOffset
         dx="-0.1"
         dy="0.1"
         result="offset"
         id="feOffset1687" />
      <feComposite
         in="SourceGraphic"
         in2="offset"
         operator="over"
         result="composite2"
         id="feComposite1689" />
    </filter>
    <filter
       style="color-interpolation-filters:sRGB"
       inkscape:label="Drop Shadow"
       id="filter2310-2">
      <feFlood
         flood-opacity="0.12549"
         flood-color="rgb(0,0,0)"
         result="flood"
         id="feFlood2300-3" />
      <feComposite
         in="flood"
         in2="SourceGraphic"
         operator="in"
         result="composite1"
         id="feComposite2302-9" />
      <feGaussianBlur
         in="composite1"
         stdDeviation="2"
         result="blur"
         id="feGaussianBlur2304-6" />
      <feOffset
         dx="-0.1"
         dy="0.1"
         result="offset"
         id="feOffset2306-3" />
      <feComposite
         in="SourceGraphic"
         in2="offset"
         operator="over"
         result="composite2"
         id="feComposite2308-8" />
    </filter>
    <filter
       style="color-interpolation-filters:sRGB"
       inkscape:label="Drop Shadow"
       id="filter1808">
      <feFlood
         flood-opacity="0.12549"
         flood-color="rgb(0,0,0)"
         result="flood"
         id="feFlood1798" />
      <feComposite
         in="flood"
         in2="SourceGraphic"
         operator="in"
         result="composite1"
         id="feComposite1800" />
      <feGaussianBlur
         in="composite1"
         stdDeviation="2"
         result="blur"
         id="feGaussianBlur1802" />
      <feOffset
         dx="-0.1"
         dy="0.1"
         result="offset"
         id="feOffset1804" />
      <feComposite
         in="SourceGraphic"
         in2="offset"
         operator="over"
         result="composite2"
         id="feComposite1806" />
    </filter>
  </defs>
  <sodipodi:namedview
     id="base"
     pagecolor="#ffffff"
     bordercolor="#666666"
     borderopacity="1.0"
     inkscape:pageopacity="0.0"
     inkscape:pageshadow="2"
     inkscape:zoom="1.4"
     inkscape:cx="174.33301"
     inkscape:cy="101.16903"
     inkscape:document-units="mm"
     inkscape:current-layer="layer1"
     showgrid="false"
     inkscape:window-width="1920"
     inkscape:window-height="1017"
     inkscape:window-x="-8"
     inkscape:window-y="-8"
     inkscape:window-maximized="1" />
  <metadata
     id="metadata955">
    <rdf:RDF>
      <cc:Work
         rdf:about="">
        <dc:format>image/svg+xml</dc:format>
        <dc:type
           rdf:resource="http://purl.org/dc/dcmitype/StillImage" />
        <dc:title></dc:title>
      </cc:Work>
    </rdf:RDF>
  </metadata>
  <g
     inkscape:label="Layer 1"
     inkscape:groupmode="layer"
     id="layer1"
     transform="translate(-123.02313,19.618215)">
    <g
       id="g1173"
       transform="translate(36.574924,-253.85897)"
       inkscape:export-xdpi="200"
       inkscape:export-ydpi="200">
      <rect
         style="opacity:1;fill:#ffffff;fill-opacity:1;stroke:none;stroke-width:3.90182328;stroke-linecap:round;stroke-linejoin:round;stroke-miterlimit:4;stroke-dasharray:none;stroke-opacity:0.9848485;paint-order:fill markers stroke;filter:url(#filter2310-2)"
         id="rect1006"
         width="53.72797"
         height="54.936657"
         x="91.820999"
         y="239.73442" />
      <rect
         y="239.73442"
         x="91.820999"
         height="1.8836571"
         width="53.72797"
         id="rect1008"
         style="opacity:1;fill:#3c74ce;fill-opacity:1;stroke:none;stroke-width:0.72249925;stroke-linecap:round;stroke-linejoin:round;stroke-miterlimit:4;stroke-dasharray:none;stroke-opacity:0.9848485;paint-order:fill markers stroke" />
      <text
         id="text1014"
         y="264.70956"
         x="118.63258"
         style="font-style:normal;font-variant:normal;font-weight:normal;font-stretch:normal;font-size:3.21990728px;line-height:1.25;font-family:Poppins;-inkscape-font-specification:Poppins;text-align:center;letter-spacing:0px;word-spacing:0px;text-anchor:middle;fill:#000000;fill-opacity:1;stroke:none;stroke-width:0.08049768"
         xml:space="preserve"><tspan
           id="tspan1039"
           style="font-style:normal;font-variant:normal;font-weight:normal;font-stretch:normal;font-family:Poppins;-inkscape-font-specification:Poppins;text-align:center;text-anchor:middle;stroke-width:0.08049768"
           y="264.70956"
           x="119.02879"
           sodipodi:role="line">Completely </tspan><tspan
           id="tspan1053"
           style="font-style:normal;font-variant:normal;font-weight:normal;font-stretch:normal;font-family:Poppins;-inkscape-font-specification:Poppins;text-align:center;text-anchor:middle;stroke-width:0.08049768"
           y="268.73444"
           x="118.63258"
           sodipodi:role="line">Customizable</tspan></text>
      <text
         id="text1018"
         y="276.53"
         x="118.72989"
         style="font-style:normal;font-variant:normal;font-weight:normal;font-stretch:normal;font-size:2.84395742px;line-height:1.25;font-family:Poppins;-inkscape-font-specification:Poppins;text-align:center;text-anchor:middle;opacity:1;fill:#8e8f9f;fill-opacity:1;stroke:none;stroke-width:0.71098936;stroke-linecap:round;stroke-linejoin:round;stroke-miterlimit:4;stroke-dasharray:none;stroke-opacity:0.9848485;paint-order:fill markers stroke"
         xml:space="preserve"><tspan
           style="fill:#8e8f9f;fill-opacity:1;stroke-width:0.71098936"
           y="276.53"
           x="118.72989"
           sodipodi:role="line"
           id="tspan1073">No restrictions on features.</tspan><tspan
           style="fill:#8e8f9f;fill-opacity:1;stroke-width:0.71098936"
           y="280.08493"
           x="118.72989"
           sodipodi:role="line"
           id="tspan1079">We will add any feature</tspan><tspan
           style="fill:#8e8f9f;fill-opacity:1;stroke-width:0.71098936"
           y="283.63989"
           x="118.72989"
           sodipodi:role="line"
           id="tspan1075">you need.</tspan></text>
      <path
         inkscape:connector-curvature="0"
         id="path1033"
         d="m 120.2586,258.8409 c -0.0498,-0.0233 -0.21423,-0.17081 -0.40687,-0.36491 l -0.32335,-0.32581 h -2.18395 -2.18394 l -0.092,-0.0486 c -0.0506,-0.0268 -0.1202,-0.0886 -0.15465,-0.13748 l -0.0626,-0.0889 -0.006,-1.34962 c -0.004,-0.7423 -0.0126,-1.35616 -0.0209,-1.36415 -0.008,-0.008 -0.11962,-0.038 -0.24742,-0.0666 -0.12779,-0.0286 -0.27149,-0.0721 -0.31933,-0.0964 -0.21357,-0.10895 -0.36253,-0.32792 -0.38759,-0.56974 -0.0265,-0.25575 0.11362,-0.52771 0.34818,-0.67578 0.089,-0.0562 0.0982,-0.089 0.0398,-0.14193 -0.0804,-0.0728 -0.13509,-0.2409 -0.13634,-0.4193 -8.9e-4,-0.14148 0.008,-0.18697 0.059,-0.29746 0.0618,-0.13391 0.18411,-0.26635 0.30267,-0.32765 0.0787,-0.0408 0.0801,-0.0573 0.012,-0.14659 -0.24282,-0.31836 -0.13772,-0.81306 0.21671,-1.02013 l 0.11815,-0.069 0.0104,-1.03367 0.0104,-1.03367 0.056,-0.0846 c 0.0308,-0.0465 0.0919,-0.1069 0.1357,-0.13415 l 0.0797,-0.0496 1.76942,-0.005 1.76941,-0.005 0.0599,-0.13222 c 0.0808,-0.17829 0.18807,-0.29117 0.35427,-0.37295 0.12413,-0.0611 0.15654,-0.068 0.31614,-0.0671 0.14999,8e-4 0.19644,0.01 0.29664,0.0583 0.14754,0.0713 0.30857,0.24291 0.37248,0.3971 l 0.0472,0.11377 0.27707,0.007 c 0.26884,0.007 0.27976,0.009 0.36756,0.0701 0.0529,0.0368 0.11002,0.10153 0.13747,0.15579 0.0469,0.0927 0.047,0.0951 0.047,1.15068 0,0.82105 0.006,1.06254 0.0261,1.07895 0.0144,0.0116 0.25159,0.11223 0.52717,0.22357 0.27559,0.11133 0.5392,0.22444 0.58579,0.25135 0.14795,0.0854 0.28613,0.25764 0.35058,0.4369 0.0153,0.0423 0.0267,0.47977 0.0339,1.29566 l 0.011,1.2318 0.1085,0.004 c 0.0597,0.002 0.14067,0.019 0.17997,0.0376 0.0393,0.0186 0.21177,0.1767 0.38325,0.35122 0.24552,0.24986 0.31709,0.33556 0.33677,0.40323 0.0305,0.10494 0.0307,0.12183 0.002,0.22724 -0.0193,0.0717 -0.22083,0.28211 -1.42481,1.48811 -0.93803,0.9396 -1.43034,1.41824 -1.48713,1.4458 -0.10579,0.0514 -0.20385,0.0517 -0.3118,8.9e-4 z m 1.59971,-1.56001 c 0.75428,-0.7537 1.38291,-1.39184 1.39696,-1.41809 0.0463,-0.0866 0.004,-0.15426 -0.26807,-0.43197 -0.26398,-0.26914 -0.34014,-0.32884 -0.41953,-0.32884 -0.0275,0 -0.52264,0.47978 -1.44162,1.39674 -1.27962,1.27679 -1.39984,1.40258 -1.39984,1.46469 0,0.0596 0.0378,0.10598 0.30819,0.37789 0.27852,0.28013 0.31512,0.30995 0.38034,0.30995 0.0676,0 0.15819,-0.086 1.44357,-1.37037 z m -1.46971,0.79055 c -0.0887,-0.0893 -0.16131,-0.17675 -0.16131,-0.19444 0,-0.0177 0.0284,-0.0594 0.0631,-0.0926 l 0.0631,-0.0604 0.17703,0.17611 c 0.0974,0.0969 0.17702,0.18409 0.17702,0.19383 0,0.0231 -0.11672,0.13978 -0.1398,0.13978 -0.01,0 -0.0904,-0.073 -0.17907,-0.16226 z m -0.86537,-0.23442 c 0.0147,-0.0568 0.15112,-0.20605 0.61201,-0.6696 l 0.59311,-0.5965 -3.1e-4,-1.73139 c -1.6e-4,-0.95227 -0.007,-1.74206 -0.0157,-1.75508 -0.008,-0.013 -0.20794,-0.11515 -0.44334,-0.22694 -0.7915,-0.37587 -0.85964,-0.41364 -0.97589,-0.54084 -0.33559,-0.36718 -0.21343,-0.9652 0.24056,-1.17763 0.10064,-0.0471 0.15063,-0.0564 0.31777,-0.0591 l 0.19834,-0.004 v -0.49789 -0.49789 h -2.16088 -2.16088 v 3.31961 3.31961 l 2.12956,0.0104 2.12956,0.0104 v 0.10439 0.10439 h -2.24438 -2.24439 l -0.005,-3.52728 c -0.004,-2.44857 0.002,-3.53402 0.0167,-3.54928 0.0235,-0.0234 4.21989,-0.04 4.58668,-0.0181 l 0.19283,0.0115 0.005,0.6598 0.005,0.65981 0.1964,0.0801 c 0.15367,0.0626 0.20016,0.0741 0.21368,0.0528 0.0258,-0.0406 0.0221,-1.86944 -0.004,-1.96306 -0.0425,-0.15309 0.18766,-0.14154 -2.8204,-0.14154 h -2.70752 l -0.054,0.0642 -0.054,0.0642 v 4.2338 4.23379 l 0.0551,0.0551 0.0551,0.0551 2.16183,-0.005 2.16183,-0.005 z m -1.19765,-0.14697 c -0.13547,-0.0367 -0.20698,-0.12725 -0.20698,-0.26218 0,-0.15375 0.10887,-0.26415 0.26376,-0.26749 0.10747,-0.003 0.19019,0.0525 0.24468,0.16216 0.0957,0.19257 -0.0939,0.42368 -0.30146,0.36751 z m -1.24597,-1.56967 c -0.0121,-0.0146 -0.0286,-0.0643 -0.0368,-0.11019 -0.034,-0.19348 -0.13185,-0.23858 -0.29713,-0.13688 -0.0571,0.0351 -0.11223,0.0638 -0.12268,0.0638 -0.0104,0 -0.10687,-0.0883 -0.21431,-0.19615 l -0.19534,-0.19616 0.0781,-0.12659 0.0781,-0.12658 -0.0391,-0.067 c -0.0318,-0.0546 -0.0624,-0.0732 -0.16423,-0.10015 l -0.12511,-0.0332 v -0.29074 -0.29074 l 0.13085,-0.0291 c 0.12004,-0.0267 0.13343,-0.0352 0.16222,-0.10418 0.0297,-0.0712 0.0288,-0.079 -0.0178,-0.14983 -0.11536,-0.17502 -0.12167,-0.1499 0.0926,-0.36837 0.10626,-0.10835 0.20152,-0.19701 0.21169,-0.19701 0.0102,0 0.0603,0.0288 0.11146,0.064 0.10268,0.0706 0.13833,0.0778 0.22074,0.0444 0.0459,-0.0186 0.0602,-0.0438 0.0815,-0.14377 0.0142,-0.0667 0.0392,-0.13221 0.0556,-0.14563 0.036,-0.0295 0.51765,-0.0254 0.54705,0.004 0.0106,0.0109 0.0323,0.0713 0.0481,0.1341 0.0232,0.0921 0.0419,0.12204 0.0963,0.1538 l 0.0675,0.0394 0.12659,-0.0781 0.12658,-0.0781 0.19616,0.19534 c 0.10789,0.10744 0.19615,0.20388 0.19615,0.21432 0,0.0104 -0.0287,0.0656 -0.0638,0.12268 -0.10256,0.16667 -0.0557,0.26561 0.1409,0.29723 0.0481,0.008 0.0977,0.0264 0.11024,0.0415 0.0145,0.0175 0.0206,0.12426 0.0169,0.29486 l -0.006,0.26747 -0.1323,0.0325 c -0.10025,0.0247 -0.13926,0.0451 -0.16106,0.0845 -0.0417,0.0753 -0.0373,0.1038 0.0324,0.20857 0.0343,0.0516 0.0625,0.10785 0.0625,0.12485 1e-4,0.0385 -0.35418,0.3971 -0.39241,0.3971 -0.0154,0 -0.0689,-0.0282 -0.11902,-0.0626 -0.10051,-0.0691 -0.1416,-0.0753 -0.21901,-0.0324 -0.0397,0.0219 -0.0595,0.0601 -0.0835,0.16106 l -0.0316,0.1323 -0.27359,0.006 c -0.20252,0.004 -0.27932,-8.9e-4 -0.29565,-0.0209 z m 0.39898,-0.24068 c 0.005,-0.0201 0.0159,-0.0712 0.023,-0.1136 0.0119,-0.0708 0.0224,-0.0806 0.12879,-0.12039 0.0637,-0.0238 0.14409,-0.058 0.17865,-0.0758 0.0598,-0.0309 0.0668,-0.0299 0.144,0.0212 0.0991,0.0656 0.13812,0.0671 0.20076,0.008 0.0622,-0.0584 0.0609,-0.10345 -0.005,-0.20369 -0.0511,-0.0771 -0.0521,-0.0843 -0.0212,-0.144 0.0178,-0.0346 0.0519,-0.1147 0.0756,-0.17809 0.0428,-0.11446 0.0439,-0.11543 0.15692,-0.13889 l 0.11381,-0.0236 v -0.10357 c 0,-0.0647 -0.01,-0.10659 -0.0261,-0.11161 -0.0144,-0.004 -0.0676,-0.0206 -0.11833,-0.0359 -0.0846,-0.0255 -0.0952,-0.0366 -0.1278,-0.1333 -0.0196,-0.058 -0.0503,-0.13392 -0.0683,-0.16872 -0.0309,-0.0599 -0.0301,-0.0676 0.0176,-0.14508 0.0658,-0.10707 0.0641,-0.13501 -0.0122,-0.20813 -0.0693,-0.0663 -0.0631,-0.0672 -0.22201,0.0328 -0.04,0.0252 -0.0581,0.0232 -0.14614,-0.0165 -0.0553,-0.0249 -0.13517,-0.0589 -0.17755,-0.0757 -0.0648,-0.0256 -0.0793,-0.0431 -0.0915,-0.11031 -0.0235,-0.13019 -0.0433,-0.15295 -0.13238,-0.15295 -0.0929,0 -0.12438,0.0298 -0.14122,0.13351 -0.0149,0.0918 -0.0206,0.0964 -0.22152,0.17956 l -0.16257,0.0673 -0.0854,-0.0566 c -0.0972,-0.0643 -0.15524,-0.0537 -0.21638,0.0397 -0.0325,0.0497 -0.0314,0.057 0.023,0.15389 l 0.0572,0.10174 -0.0555,0.11718 c -0.0305,0.0645 -0.0555,0.13039 -0.0555,0.14655 0,0.0464 -0.0658,0.0919 -0.15653,0.10819 -0.0983,0.0176 -0.11414,0.0372 -0.11457,0.14091 -3.1e-4,0.0862 0.0233,0.10635 0.15264,0.12972 0.0672,0.0121 0.0847,0.0266 0.11031,0.0915 0.0168,0.0424 0.0508,0.12228 0.0757,0.17756 0.0397,0.0881 0.0417,0.10612 0.0165,0.14614 -0.10014,0.15883 -0.0992,0.15273 -0.0328,0.222 0.0744,0.0776 0.0937,0.0785 0.21174,0.009 0.0693,-0.0406 0.0998,-0.0487 0.12024,-0.0317 0.0151,0.0125 0.0877,0.0452 0.1614,0.0728 0.12654,0.0472 0.13557,0.0551 0.16184,0.14129 0.0153,0.0502 0.0315,0.10304 0.0359,0.11739 0.005,0.0163 0.047,0.0261 0.11169,0.0261 0.081,0 0.10583,-0.008 0.11366,-0.0366 z m -0.23005,-0.50754 c -0.11629,-0.0226 -0.19976,-0.0678 -0.2882,-0.15626 -0.12667,-0.12667 -0.16676,-0.22678 -0.16684,-0.41664 -8e-5,-0.18874 0.0284,-0.26196 0.15301,-0.39323 0.10191,-0.10737 0.21505,-0.16241 0.36106,-0.17565 0.24601,-0.0223 0.4651,0.10016 0.57273,0.32015 0.20705,0.42317 -0.16845,0.91151 -0.63176,0.82163 z m 0.2558,-0.24713 c 0.20705,-0.094 0.27399,-0.3322 0.1472,-0.52377 -0.1366,-0.20642 -0.44683,-0.19652 -0.592,0.0189 -0.0909,0.13487 -0.0497,0.3702 0.0812,0.46339 0.12094,0.0862 0.2363,0.0993 0.36357,0.0415 z m 1.8858,-0.69341 c -0.0528,-0.008 -0.12795,-0.0303 -0.16702,-0.05 -0.0391,-0.0196 -0.39049,-0.35382 -0.78091,-0.74258 l -0.70985,-0.70683 -0.20878,6.4e-4 c -0.1525,4.8e-4 -0.24536,-0.0109 -0.34449,-0.0417 -0.40397,-0.12606 -0.70005,-0.48648 -0.74286,-0.90427 -0.0136,-0.13264 0.0144,-0.38219 0.0547,-0.48817 l 0.0217,-0.0571 0.26721,0.26439 c 0.14697,0.14542 0.27595,0.26439 0.28664,0.26439 0.0107,0 0.12716,-0.10806 0.25886,-0.24012 l 0.23943,-0.24011 -0.26885,-0.26946 c -0.17173,-0.1721 -0.2647,-0.28028 -0.25736,-0.29942 0.0135,-0.035 0.22273,-0.0978 0.38031,-0.11402 0.33964,-0.035 0.72972,0.14719 0.93708,0.43779 0.14957,0.2096 0.18497,0.31988 0.19597,0.61051 l 0.009,0.25054 0.7151,0.72029 c 0.79,0.79574 0.78433,0.78812 0.78337,1.05284 -8.9e-4,0.34931 -0.31187,0.60558 -0.66966,0.55251 z m 0.27609,-0.26007 c 0.13525,-0.0699 0.20584,-0.24516 0.16279,-0.40401 -0.0234,-0.0862 -0.10103,-0.17121 -0.77604,-0.85001 l -0.7501,-0.75431 0.0229,-0.15388 c 0.0647,-0.43485 -0.18005,-0.82098 -0.60138,-0.94885 -0.12113,-0.0367 -0.25301,-0.0389 -0.25301,-0.004 0,0.0142 0.0915,0.11754 0.20327,0.22975 l 0.20326,0.20403 -0.39617,0.39659 c -0.2179,0.21812 -0.40588,0.39659 -0.41773,0.39659 -0.0119,0 -0.10099,-0.0798 -0.19809,-0.17747 -0.0971,-0.0976 -0.18499,-0.17745 -0.19533,-0.17745 -0.0325,0 0.006,0.17193 0.0696,0.30775 0.15707,0.33747 0.51165,0.52332 0.89082,0.46693 l 0.16167,-0.0241 0.75273,0.74951 c 0.63808,0.63535 0.76545,0.75286 0.83625,0.77145 0.0948,0.0249 0.20188,0.0142 0.2845,-0.0286 z m -2.20441,-4.54683 c -0.0252,-0.0185 -0.0334,-0.0492 -0.0284,-0.10844 l 0.007,-0.0827 h 0.46976 0.46976 l 0.006,0.0811 c 0.004,0.0446 -0.003,0.0905 -0.0144,0.10209 -0.0328,0.0328 -0.86608,0.0401 -0.91,0.008 z m 4.14937,6.06634 0.6216,-0.62185 -0.006,-1.32503 c -0.005,-1.2458 -0.008,-1.32938 -0.0447,-1.39809 -0.0493,-0.0927 -0.15324,-0.20361 -0.22702,-0.24226 -0.0497,-0.026 -0.71575,-0.29763 -1.69665,-0.69186 -0.32517,-0.13069 -0.433,-0.14544 -0.59924,-0.082 -0.11995,0.0458 -0.27632,0.20831 -0.30709,0.31912 -0.0555,0.19977 7.9e-4,0.42775 0.13724,0.55571 0.0335,0.0314 0.37054,0.20632 0.74903,0.3887 l 0.68816,0.33159 0.005,1.69389 c 0.004,1.33861 0.0108,1.69389 0.0315,1.69389 0.0144,0 0.30582,-0.27984 0.6477,-0.62185 z m -0.45577,-0.13512 c -0.005,-0.0144 -0.008,-0.34092 -0.004,-0.72551 l 0.005,-0.69926 0.0811,-0.006 c 0.0446,-0.004 0.0916,0.004 0.10439,0.0167 0.0232,0.0232 0.0416,1.32268 0.0198,1.40444 -0.007,0.0279 -0.0318,0.0366 -0.10291,0.0366 -0.0556,0 -0.0973,-0.0106 -0.10327,-0.0262 z m 0.016,-1.87039 c -0.02,-0.0127 -0.0252,-0.0849 -0.0209,-0.28675 l 0.006,-0.26978 0.0966,-0.006 0.0966,-0.006 0.0146,0.13675 c 0.0172,0.16064 -0.005,0.41199 -0.0384,0.43393 -0.0311,0.0205 -0.12114,0.0195 -0.15446,-0.002 z m -6.33545,0.73204 0.005,-0.48551 -0.0578,-0.0234 c -0.096,-0.0388 -0.31854,-0.0323 -0.40899,0.012 -0.18611,0.0912 -0.27383,0.23228 -0.27461,0.44169 -4.7e-4,0.1286 0.008,0.16105 0.0626,0.24998 0.0373,0.0604 0.10142,0.12566 0.15658,0.15952 0.0867,0.0532 0.40835,0.14371 0.47965,0.13497 0.0267,-0.004 0.0322,-0.0763 0.0369,-0.48934 z m -0.005,-1.22594 c 0,-0.54437 0.006,-0.52671 -0.17012,-0.45925 -0.24774,0.0946 -0.36933,0.34202 -0.29751,0.6054 0.0301,0.11038 0.21105,0.28881 0.32328,0.31879 0.15276,0.0408 0.14435,0.0679 0.14435,-0.46494 z m 0.0104,-1.17961 c 0,-0.34387 -0.004,-0.39669 -0.0323,-0.39669 -0.0471,0 -0.13093,0.0915 -0.17713,0.19326 -0.0796,0.17553 -0.0427,0.39587 0.0893,0.53226 0.1164,0.12027 0.12011,0.1101 0.12011,-0.32883 z m 4.99991,-3.04759 c 0.0205,-0.0333 -0.045,-0.13768 -0.13462,-0.21437 -0.2243,-0.192 -0.56198,-0.14705 -0.7261,0.0967 -0.0373,0.0553 -0.0625,0.109 -0.0562,0.11927 0.0159,0.0258 0.90097,0.0243 0.91691,-0.002 z m 1.52839,9.77439 c -0.0309,-0.0322 -0.0561,-0.0677 -0.0561,-0.0788 0,-0.0111 0.0652,-0.0849 0.14477,-0.16397 0.144,-0.14289 0.14506,-0.14347 0.19761,-0.10905 0.11608,0.0761 0.11128,0.10642 -0.0419,0.2651 -0.0771,0.0799 -0.15109,0.14532 -0.16428,0.14532 -0.0132,0 -0.0492,-0.0263 -0.0801,-0.0586 z m -5.82367,-0.11013 c -0.0229,-0.0134 -0.0364,-0.0463 -0.0362,-0.0881 4.9e-4,-0.10862 0.02,-0.12187 0.16861,-0.11487 l 0.13381,0.006 0.006,0.0919 c 0.004,0.0594 -0.004,0.0981 -0.0209,0.1093 -0.0383,0.0242 -0.20774,0.0212 -0.25189,-0.004 z m 0.67719,0.004 c -0.0177,-0.0112 -0.0251,-0.0499 -0.0209,-0.10929 l 0.006,-0.0919 1.06343,-0.005 c 0.83691,-0.004 1.06699,1.6e-4 1.08013,0.0209 0.0253,0.0399 0.0205,0.15043 -0.008,0.17871 -0.0295,0.0295 -2.07534,0.0363 -2.12153,0.007 z m 5.71832,-0.45356 c -0.0353,-0.0297 -0.0642,-0.065 -0.0642,-0.0784 0,-0.0134 0.2865,-0.31074 0.63667,-0.66078 l 0.63667,-0.63641 0.0779,0.0779 0.0779,0.0779 -0.63574,0.63699 c -0.34967,0.35036 -0.64229,0.63702 -0.65027,0.63702 -0.008,0 -0.0434,-0.0243 -0.0787,-0.054 z"
         style="fill:#727272;fill-opacity:1;stroke:#808080;stroke-width:0.05291667;stroke-miterlimit:4;stroke-dasharray:none;stroke-opacity:1" />
    </g>
    <g
       id="g1195"
       transform="translate(35.463923,-253.85897)"
       inkscape:export-xdpi="200"
       inkscape:export-ydpi="200">
      <rect
         y="239.73442"
         x="156.43199"
         height="54.936657"
         width="53.72797"
         id="rect1068"
         style="opacity:1;fill:#ffffff;fill-opacity:1;stroke:none;stroke-width:3.90182328;stroke-linecap:round;stroke-linejoin:round;stroke-miterlimit:4;stroke-dasharray:none;stroke-opacity:0.9848485;paint-order:fill markers stroke;filter:url(#filter2310-2)" />
      <rect
         style="opacity:1;fill:#3c74ce;fill-opacity:1;stroke:none;stroke-width:0.72249925;stroke-linecap:round;stroke-linejoin:round;stroke-miterlimit:4;stroke-dasharray:none;stroke-opacity:0.9848485;paint-order:fill markers stroke"
         id="rect1070"
         width="53.72797"
         height="1.8836571"
         x="156.43199"
         y="239.73442" />
      <text
         xml:space="preserve"
         style="font-style:normal;font-variant:normal;font-weight:normal;font-stretch:normal;font-size:3.21990728px;line-height:1.25;font-family:Poppins;-inkscape-font-specification:Poppins;text-align:center;letter-spacing:0px;word-spacing:0px;text-anchor:middle;fill:#000000;fill-opacity:1;stroke:none;stroke-width:0.08049768"
         x="183.24358"
         y="264.70956"
         id="text1076"><tspan
           sodipodi:role="line"
           x="183.24358"
           y="264.70956"
           style="font-style:normal;font-variant:normal;font-weight:normal;font-stretch:normal;font-family:Poppins;-inkscape-font-specification:Poppins;text-align:center;text-anchor:middle;stroke-width:0.08049768"
           id="tspan1074">100%</tspan><tspan
           sodipodi:role="line"
           x="183.24358"
           y="268.73444"
           style="font-style:normal;font-variant:normal;font-weight:normal;font-stretch:normal;font-family:Poppins;-inkscape-font-specification:Poppins;text-align:center;text-anchor:middle;stroke-width:0.08049768"
           id="tspan1081">White Label Product</tspan></text>
      <text
         xml:space="preserve"
         style="font-style:normal;font-variant:normal;font-weight:normal;font-stretch:normal;font-size:2.84395742px;line-height:1.25;font-family:Poppins;-inkscape-font-specification:Poppins;text-align:center;text-anchor:middle;opacity:1;fill:#8e8f9f;fill-opacity:1;stroke:none;stroke-width:0.71098936;stroke-linecap:round;stroke-linejoin:round;stroke-miterlimit:4;stroke-dasharray:none;stroke-opacity:0.9848485;paint-order:fill markers stroke"
         x="183.34088"
         y="276.53"
         id="text1084"><tspan
           id="tspan1097"
           sodipodi:role="line"
           x="183.34088"
           y="276.53"
           style="fill:#8e8f9f;fill-opacity:1;stroke-width:0.71098936">It's your brand that</tspan><tspan
           sodipodi:role="line"
           x="183.34088"
           y="280.08493"
           style="fill:#8e8f9f;fill-opacity:1;stroke-width:0.71098936"
           id="tspan1088">customers see everywhere</tspan><tspan
           sodipodi:role="line"
           x="183.34088"
           y="283.63989"
           style="fill:#8e8f9f;fill-opacity:1;stroke-width:0.71098936"
           id="tspan1090">on the app.</tspan></text>
    </g>
    <g
       id="g947"
       transform="matrix(0.05003814,0,0,0.05003814,238.37332,-4.2773865)"
       style="fill:#808080;fill-opacity:1"
       inkscape:export-xdpi="200"
       inkscape:export-ydpi="200">
      <path
         style="fill:#808080;fill-opacity:1;stroke-width:0.26458335"
         d="m -483.49724,193.21497 c -2.53558,-0.68981 -5.61648,-3.13809 -6.77978,-5.38767 -1.42036,-2.74668 -1.31179,1.31949 -1.4553,-54.50435 l -0.13229,-51.461456 -2.24896,-0.16342 c -3.41123,-0.24788 -5.74783,-1.380532 -7.90607,-3.832424 -1.51996,-1.72676 -2.36745,-3.609305 -2.66813,-5.926754 -0.34073,-2.62604 -0.33808,-25.013693 0.003,-27.375443 0.14656,-1.014132 0.55604,-2.476365 0.90995,-3.249409 0.91406,-1.996564 3.22263,-4.314018 5.37215,-5.392809 l 1.77534,-0.890992 33.77853,-0.132292 c 18.5782,-0.07276 33.86448,-0.218257 33.96951,-0.323326 0.19822,-0.198284 -0.0968,-0.332875 -3.18971,-1.455404 -3.71582,-1.348587 -9.20536,-4.045442 -13.84924,-6.803732 -4.59729,-2.730621 -10.1119,-7.731257 -12.85642,-11.658163 -1.60999,-2.303616 -3.37651,-5.989151 -4.12158,-8.5989587 -0.71693,-2.5112795 -0.97832,-7.1666816 -0.54343,-9.6787972 1.96383,-11.3441111 11.4478,-19.1733991 23.20475,-19.1561931 10.70989,0.01566 19.55532,5.416814 30.68334,18.7356511 3.71553,4.44702946 6.42083,8.0788035 10.45388,14.0340295 1.83589,2.7108684 3.46894,4.9288514 3.62902,4.9288514 0.16008,0 1.22939,-1.562883 2.37625,-3.473074 13.06012,-21.752661 25.56838,-33.228455 38.47106,-35.295574 3.2281,-0.517168 8.52766,-0.214243 11.45238,0.654622 15.8789,4.717259 22.03717,22.23952589 12.75133,36.281657 -5.52404,8.353496 -16.42262,15.509031 -31.09507,20.415679 -1.21229,0.405402 -2.22432,0.85485 -2.24896,0.998768 -0.0293,0.170878 12.21305,0.307575 35.28275,0.393964 l 35.32757,0.132292 1.73845,0.855903 c 2.19541,1.080865 3.83439,2.526313 4.92104,4.339961 1.66171,2.773428 1.69407,3.152248 1.60567,18.798045 -0.0887,15.691099 0,14.891026 -1.96855,17.856105 -1.8846,2.839252 -5.62165,4.843701 -9.04782,4.852996 -0.82143,0.0021 -1.64084,0.09764 -1.82094,0.212018 -0.25797,0.163844 -0.34216,11.123285 -0.39688,51.655849 l -0.0694,51.44788 -0.56679,1.38091 c -1.20385,2.93302 -3.58594,5.3151 -6.51896,6.51896 l -1.38091,0.56679 -87.70938,0.0431 c -76.22862,0.0375 -87.89554,-0.008 -89.13159,-0.3438 z m 66.85367,-9.40952 c 0.46197,-0.46196 0.46197,-101.29678 0,-101.758748 -0.24342,-0.243422 -7.73554,-0.3175 -32.11119,-0.3175 -31.76419,0 -31.79434,5.29e-4 -32.49084,0.54837 l -0.69714,0.54837 v 49.872148 c 0,34.78225 0.0853,50.03152 0.28188,50.39885 0.15504,0.28968 0.54199,0.6315 0.8599,0.75958 0.94955,0.38259 63.77375,0.33258 64.15739,-0.0511 z m 107.67764,0.0344 c 0.44661,-0.15569 0.88076,-0.4622 0.96478,-0.68115 0.084,-0.21894 0.15715,-22.91349 0.16251,-50.43232 0.009,-45.116928 -0.031,-50.075066 -0.40554,-50.449581 -0.3719,-0.371933 -3.72529,-0.423032 -32.08974,-0.488982 -17.42094,-0.04051 -31.94233,-0.0085 -32.26975,0.07119 l -0.59531,0.144833 v 50.9052 c 0,40.4766 0.0677,50.93254 0.33073,51.03866 0.70456,0.28429 63.0794,0.17903 63.90232,-0.10785 z m -74.0881,-51.03006 c 0.0532,-40.346758 -5.3e-4,-50.694482 -0.26459,-50.862093 -0.5725,-0.363501 -22.79743,-0.268542 -23.16495,0.09897 -0.4644,0.464407 -0.46169,100.767893 0.003,101.232323 0.24295,0.24295 3.1007,0.30361 11.84011,0.25135 l 11.51985,-0.0689 z m -44.4596,-60.971521 c 0.14842,-0.148431 0.0865,-26.918256 -0.0629,-27.159882 -0.10014,-0.162025 -12.23612,-0.255466 -33.17951,-0.255466 -33.00646,0 -33.02194,2.52e-4 -33.71876,0.548371 l -0.69714,0.54837 v 12.651486 c 0,11.658923 0.0363,12.695497 0.46302,13.212501 l 0.46302,0.561017 19.44688,0.06361 c 19.35926,0.06332 47.15194,-0.0366 47.28535,-0.170003 z m 111.11502,0.151929 c 18.64816,-0.04505 20.99501,-0.09628 21.36511,-0.466384 0.36653,-0.36653 0.41577,-1.933405 0.41577,-13.229167 0,-12.460615 -0.0145,-12.82796 -0.52917,-13.342559 -0.5235,-0.523518 -0.88193,-0.529167 -33.56969,-0.529167 -27.57885,0 -33.09001,0.05964 -33.33996,0.360813 -0.21619,0.260482 -0.28037,4.067799 -0.23084,13.692187 l 0.0686,13.331376 4.6302,0.132292 c 2.54662,0.07276 8.14256,0.125301 12.43542,0.116755 4.29287,-0.0085 17.23241,-0.03831 28.75454,-0.06615 z M -372.27294,58.313577 V 45.08441 l -22.09271,-0.07279 c -12.15099,-0.04004 -22.3606,-0.008 -22.68802,0.07119 l -0.59531,0.143978 v 13.069787 c 0,10.20785 0.0724,13.09918 0.33073,13.204018 0.1819,0.07383 10.39151,0.113515 22.68802,0.08819 l 22.35729,-0.04604 z m -29.92054,-30.989575 c 1.04203,-1.864387 1.31353,-1.179354 -3.22386,-8.134192 -7.91029,-12.1247587 -16.69724,-22.6972628 -22.39544,-26.9463204 -6.43928,-4.8016636 -13.0567,-5.9670026 -18.5435,-3.2655456 -4.8816,2.4034854 -7.65461,7.7533447 -6.75978,13.0413549 0.60404,3.5695864 3.46291,8.2137441 6.97499,11.3306911 3.48073,3.089125 11.60623,7.718415 17.51188,9.976938 7.38739,2.825192 17.93553,5.109962 23.98832,5.195967 l 1.76331,0.02506 z m 19.37512,0.551979 c 7.00767,-0.918626 16.884,-3.517974 23.22783,-6.113328 14.93571,-6.110407 23.15148,-14.1930915 23.16549,-22.7902376 0.012,-7.3769777 -6.63841,-13.1215584 -14.68123,-12.6815084 -9.63598,0.527219 -19.22769,8.8530695 -30.60966,26.569961 -2.81095,4.375449 -7.35805,12.123381 -7.35805,12.537581 0,0.141737 0.17859,0.551169 0.39687,0.909852 1.41867,2.331175 0.96353,2.209387 5.85875,1.56768 z"
         id="path949"
         inkscape:connector-curvature="0" />
    </g>
  </g>
</svg>
